<svg xmlns="http://www.w3.org/2000/svg" width="1718" height="978.331" viewBox="0 0 1718 978.331">
  <g id="Group_596" data-name="Group 596" transform="translate(-109 -3989.429)">
    <path id="Path_17731" data-name="Path 17731" d="M125.783,0a1.107,1.107,0,0,0-.364.058q-4.73,1.571-9.392,3.274a1.16,1.16,0,1,0,.8,2.178q4.629-1.692,9.323-3.253A1.157,1.157,0,0,0,125.783,0M100.3,9.629" transform="matrix(0.996, 0.087, -0.087, 0.996, 918.556, 4081.352)" fill="#0f0032"/>
    <path id="Path_17723" data-name="Path 17723" d="M1.222.007A1.257,1.257,0,0,0,.5.23,1.12,1.12,0,0,0,.249,1.851q2.9,3.7,5.681,7.478a1.272,1.272,0,0,0,1.7.3,1.116,1.116,0,0,0,.293-1.612Q5.114,4.209,2.206.48A1.271,1.271,0,0,0,1.222.007M16.374,20.985a1.237,1.237,0,0,0-.651.175,1.119,1.119,0,0,0-.372,1.6q2.6,3.891,5.083,7.853a1.261,1.261,0,0,0,1.674.415,1.118,1.118,0,0,0,.418-1.583q-2.5-3.991-5.118-7.909a1.25,1.25,0,0,0-1.035-.546M29.85,42.951a1.252,1.252,0,0,0-.57.134,1.12,1.12,0,0,0-.5,1.564q2.285,4.059,4.455,8.186a1.266,1.266,0,0,0,1.638.535,1.124,1.124,0,0,0,.543-1.55q-2.187-4.16-4.487-8.246a1.249,1.249,0,0,0-1.082-.622M41.572,65.8a1.3,1.3,0,0,0-.49.095,1.126,1.126,0,0,0-.616,1.524q1.96,4.207,3.8,8.474a1.241,1.241,0,0,0,1.59.646,1.123,1.123,0,0,0,.663-1.5q-1.851-4.3-3.828-8.537a1.24,1.24,0,0,0-1.122-.7m9.9,23.6a1.226,1.226,0,0,0-.4.065,1.13,1.13,0,0,0-.738,1.47q1.617,4.338,3.121,8.719a1.26,1.26,0,0,0,1.539.762,1.139,1.139,0,0,0,.785-1.454q-1.518-4.417-3.148-8.779a1.237,1.237,0,0,0-1.156-.783m8.011,24.228a1.253,1.253,0,0,0-.317.04,1.136,1.136,0,0,0-.851,1.414q1.273,4.43,2.427,8.91a1.232,1.232,0,0,0,1.476.866,1.147,1.147,0,0,0,.9-1.393q-1.16-4.509-2.449-8.973a1.221,1.221,0,0,0-1.181-.864" transform="matrix(0.995, -0.105, 0.105, 0.995, 1314.067, 4125.07)" fill="#0f0032"/>
    <text id="BE_PRECISE" data-name="BE PRECISE" transform="translate(549.682 4856.052)" fill="#109194" font-size="24" font-family="Montserrat-SemiBold, Montserrat" font-weight="600" letter-spacing="-0.009em"><tspan x="0" y="0">BE PRECISE</tspan></text>
    <text id="SAVE_SMART" data-name="SAVE SMART" transform="translate(283 4249.479)" fill="#109194" font-size="24" font-family="Montserrat-SemiBold, Montserrat" font-weight="600" letter-spacing="-0.009em"><tspan x="0" y="0">SAVE SMART</tspan></text>
    <rect id="Rectangle_143" data-name="Rectangle 143" width="164.135" height="55.615" transform="translate(1309.088 4602.999)" fill="none"/>
    <rect id="Rectangle_145" data-name="Rectangle 145" width="2.317" height="6.95" rx="0.5" transform="translate(182.45 4382.356)" fill="#0f0032"/>
    <rect id="Rectangle_234" data-name="Rectangle 234" width="2.317" height="6.95" rx="0.5" transform="translate(182.45 4208.356)" fill="#0f0032"/>
    <path id="Path_17382" data-name="Path 17382" d="M1.226,0A1.159,1.159,0,0,0,.067,1.158l0,8.579a1.158,1.158,0,1,0,2.317,0l0-8.579A1.157,1.157,0,0,0,1.228,0ZM1.214,23.6A1.157,1.157,0,0,0,.056,24.755l0,8.582a1.158,1.158,0,0,0,2.317,0l0-8.582A1.159,1.159,0,0,0,1.214,23.6ZM1.2,47.191A1.159,1.159,0,0,0,.042,48.35l0,8.582a1.158,1.158,0,1,0,2.317,0l0-8.582A1.16,1.16,0,0,0,1.2,47.191Zm-.012,23.6A1.159,1.159,0,0,0,.03,71.947l0,8.579a1.157,1.157,0,0,0,1.156,1.161h0a1.158,1.158,0,0,0,1.158-1.156l0-8.582A1.159,1.159,0,0,0,1.189,70.788Zm-.014,23.6A1.158,1.158,0,0,0,.016,95.541l0,8.581a1.158,1.158,0,1,0,2.317,0l0-8.581a1.157,1.157,0,0,0-1.156-1.158Zm-.012,23.6A1.158,1.158,0,0,0,0,119.138l0,8.582a1.158,1.158,0,0,0,2.317,0l0-8.579A1.159,1.159,0,0,0,1.163,117.982Z" transform="translate(182.372 4402.006)" fill="#0f0032"/>
    <path id="Path_17730" data-name="Path 17730" d="M1.226,0A1.159,1.159,0,0,0,.067,1.158l0,8.579a1.158,1.158,0,1,0,2.317,0l0-8.579A1.157,1.157,0,0,0,1.228,0ZM1.214,23.6A1.157,1.157,0,0,0,.056,24.755l0,8.582a1.158,1.158,0,0,0,2.317,0l0-8.582A1.159,1.159,0,0,0,1.214,23.6ZM1.2,47.191A1.159,1.159,0,0,0,.042,48.35l0,8.582a1.158,1.158,0,1,0,2.317,0l0-8.582A1.16,1.16,0,0,0,1.2,47.191Zm-.012,23.6A1.159,1.159,0,0,0,.03,71.947l0,8.579a1.157,1.157,0,0,0,1.156,1.161h0a1.158,1.158,0,0,0,1.158-1.156l0-8.582A1.159,1.159,0,0,0,1.189,70.788Zm-.014,23.6A1.158,1.158,0,0,0,.016,95.541l0,8.581a1.158,1.158,0,1,0,2.317,0l0-8.581a1.157,1.157,0,0,0-1.156-1.158Zm-.012,23.6A1.158,1.158,0,0,0,0,119.138l0,8.582a1.158,1.158,0,0,0,2.317,0l0-8.579A1.159,1.159,0,0,0,1.163,117.982Z" transform="translate(182.372 4228.006)" fill="#0f0032"/>
    <path id="Path_17383" data-name="Path 17383" d="M1.161,0A1.159,1.159,0,0,0,0,1.158L0,5.792a1.158,1.158,0,0,0,2.317,0l0-4.634A1.159,1.159,0,0,0,1.161,0" transform="translate(182.36 4543.582)" fill="#0f0032"/>
    <path id="Path_17384" data-name="Path 17384" d="M4.229,0a1.16,1.16,0,0,0-.874.4Q1.841,2.137.3,3.853A1.158,1.158,0,0,0,2.019,5.4Q3.576,3.676,5.1,1.921A1.158,1.158,0,0,0,4.229,0" transform="translate(677.707 4807.63)" fill="#0f0032"/>
    <path id="Path_17385" data-name="Path 17385" d="M41.154,0a1.16,1.16,0,0,0-1.073.723Q38.459,4.716,36.72,8.651a1.159,1.159,0,1,0,2.12.936q1.752-3.965,3.389-7.993A1.161,1.161,0,0,0,41.154,0M31.3,21.635a1.157,1.157,0,0,0-1.033.635q-1.95,3.847-4.008,7.622A1.159,1.159,0,0,0,28.289,31q2.075-3.809,4.041-7.685a1.159,1.159,0,0,0-.51-1.557,1.145,1.145,0,0,0-.524-.125M19.677,42.379a1.157,1.157,0,0,0-.987.551Q16.431,46.6,14.066,50.2A1.158,1.158,0,0,0,16,51.471q2.384-3.625,4.664-7.326a1.158,1.158,0,0,0-.987-1.765M6.388,62.093a1.15,1.15,0,0,0-.934.473Q2.9,66.034.246,69.426a1.158,1.158,0,1,0,1.823,1.427q2.679-3.416,5.25-6.916a1.157,1.157,0,0,0-.931-1.844" transform="translate(690.418 4726.981)" fill="#0f0032"/>
    <path id="Path_17386" data-name="Path 17386" d="M2.637,0a1.158,1.158,0,0,0-1.1.8Q.818,2.993.064,5.171a1.158,1.158,0,0,0,2.189.758q.761-2.2,1.485-4.409A1.159,1.159,0,0,0,2.637,0" transform="translate(735.747 4708.408)" fill="#0f0032"/>
    <path id="Path_17387" data-name="Path 17387" d="M1.157,0A1.159,1.159,0,0,0,.11,1.652q.99,2.1,2.018,4.191A1.157,1.157,0,1,0,4.206,4.824q-1.015-2.071-2-4.159A1.16,1.16,0,0,0,1.157,0" transform="translate(207.301 4730.281)" fill="#0f0032"/>
    <path id="Path_17388" data-name="Path 17388" d="M1.158,0A1.145,1.145,0,0,0,.59.151,1.154,1.154,0,0,0,.15,1.726Q2.409,5.747,4.8,9.684a1.159,1.159,0,1,0,1.981-1.2Q4.412,4.579,2.168.591A1.161,1.161,0,0,0,1.158,0M14.487,21.424a1.16,1.16,0,0,0-.955,1.814q2.606,3.805,5.329,7.518a1.157,1.157,0,1,0,1.867-1.367q-2.7-3.687-5.282-7.46a1.158,1.158,0,0,0-.959-.505M29.641,41.6a1.145,1.145,0,0,0-.734.264,1.158,1.158,0,0,0-.16,1.631q2.926,3.562,5.961,7.027a1.158,1.158,0,0,0,1.742-1.527q-3.013-3.44-5.915-6.971a1.155,1.155,0,0,0-.894-.424m16.85,18.778a1.16,1.16,0,0,0-.827,1.969q3.225,3.295,6.552,6.48a1.159,1.159,0,0,0,1.6-1.675q-3.3-3.162-6.5-6.425a1.151,1.151,0,0,0-.829-.35M64.912,77.611a1.158,1.158,0,0,0-.753,2.036q3.5,3,7.089,5.885A1.158,1.158,0,0,0,72.7,83.725q-3.559-2.86-7.032-5.834a1.14,1.14,0,0,0-.753-.28M84.765,93.176a1.159,1.159,0,0,0-.676,2.1q3.743,2.683,7.574,5.243a1.159,1.159,0,0,0,1.288-1.928q-3.8-2.54-7.513-5.2a1.152,1.152,0,0,0-.672-.215M105.9,106.947a1.16,1.16,0,0,0-.591,2.157q3.962,2.342,8,4.557a1.158,1.158,0,1,0,1.112-2.032q-4.007-2.193-7.937-4.518a1.143,1.143,0,0,0-.588-.164m22.255,11.869a1.157,1.157,0,0,0-.5,2.2q4.149,1.984,8.373,3.839a1.159,1.159,0,0,0,.929-2.125q-4.184-1.831-8.3-3.8a1.154,1.154,0,0,0-.5-.111" transform="translate(216.794 4748.663)" fill="#0f0032"/>
    <path id="Path_17389" data-name="Path 17389" d="M1.158,0A1.158,1.158,0,0,0,.753,2.243q2.179.813,4.372,1.594A1.159,1.159,0,1,0,5.9,1.652Q3.723.88,1.564.074A1.138,1.138,0,0,0,1.158,0" transform="translate(367.037 4877.354)" fill="#0f0032"/>
    <path id="Path_17390" data-name="Path 17390" d="M1.167,0A1.159,1.159,0,0,0,.009,1.151c-.019,3.007,0,4.643,0,4.643A1.17,1.17,0,0,0,1.174,6.941a1.161,1.161,0,0,0,1.149-1.17s-.016-1.626,0-4.606A1.159,1.159,0,0,0,1.174,0Z" transform="translate(752.358 4506.362)" fill="#0f0032"/>
    <path id="Path_17391" data-name="Path 17391" d="M13.332,0A1.158,1.158,0,0,0,12.2.938q-.949,4.841-1.8,9.708a1.16,1.16,0,0,0,2.284.4q.848-4.841,1.791-9.668A1.155,1.155,0,0,0,13.556.023,1.069,1.069,0,0,0,13.332,0M8.807,26.713a1.156,1.156,0,0,0-1.145.989q-.712,4.914-1.344,9.775a1.158,1.158,0,1,0,2.3.3c.422-3.225.866-6.478,1.341-9.738a1.16,1.16,0,0,0-.98-1.314,1.418,1.418,0,0,0-.169-.012M5.45,53.6A1.159,1.159,0,0,0,4.3,54.631q-.528,4.977-.978,9.821a1.161,1.161,0,0,0,1.047,1.26,1.187,1.187,0,0,0,1.26-1.047q.448-4.82.973-9.789A1.158,1.158,0,0,0,5.572,53.6,1.12,1.12,0,0,0,5.45,53.6m-2.4,26.989A1.154,1.154,0,0,0,1.9,81.659q-.372,5.067-.66,9.847a1.158,1.158,0,0,0,1.087,1.226,1.141,1.141,0,0,0,1.226-1.087q.292-4.758.658-9.819a1.158,1.158,0,0,0-1.073-1.24c-.028,0-.056,0-.086,0M1.513,107.637a1.156,1.156,0,0,0-1.156,1.11C.211,112.278.093,115.575,0,118.61A1.161,1.161,0,0,0,1.124,119.8a1.2,1.2,0,0,0,1.193-1.124c.09-3.026.206-6.316.354-9.835a1.16,1.16,0,0,0-1.11-1.207H1.513" transform="translate(752.693 4371.648)" fill="#0f0032"/>
    <path id="Path_17726" data-name="Path 17726" d="M13.332,0A1.158,1.158,0,0,0,12.2.938q-.949,4.841-1.8,9.708a1.16,1.16,0,0,0,2.284.4q.848-4.841,1.791-9.668A1.155,1.155,0,0,0,13.556.023,1.069,1.069,0,0,0,13.332,0M8.807,26.713a1.156,1.156,0,0,0-1.145.989q-.712,4.914-1.344,9.775a1.158,1.158,0,1,0,2.3.3c.422-3.225.866-6.478,1.341-9.738a1.16,1.16,0,0,0-.98-1.314,1.418,1.418,0,0,0-.169-.012M5.45,53.6A1.159,1.159,0,0,0,4.3,54.631q-.528,4.977-.978,9.821a1.161,1.161,0,0,0,1.047,1.26,1.187,1.187,0,0,0,1.26-1.047q.448-4.82.973-9.789A1.158,1.158,0,0,0,5.572,53.6,1.12,1.12,0,0,0,5.45,53.6m-2.4,26.989A1.154,1.154,0,0,0,1.9,81.659q-.372,5.067-.66,9.847a1.158,1.158,0,0,0,1.087,1.226,1.141,1.141,0,0,0,1.226-1.087q.292-4.758.658-9.819a1.158,1.158,0,0,0-1.073-1.24c-.028,0-.056,0-.086,0M1.513,107.637a1.156,1.156,0,0,0-1.156,1.11C.211,112.278.093,115.575,0,118.61A1.161,1.161,0,0,0,1.124,119.8a1.2,1.2,0,0,0,1.193-1.124c.09-3.026.206-6.316.354-9.835a1.16,1.16,0,0,0-1.11-1.207H1.513" transform="translate(838.618 4204.345) rotate(20)" fill="#0f0032"/>
    <path id="Path_17392" data-name="Path 17392" d="M2.248,0A1.161,1.161,0,0,0,1.124.88Q.565,3.129.031,5.391a1.16,1.16,0,0,0,2.257.535q.532-2.252,1.087-4.49A1.161,1.161,0,0,0,2.248,0" transform="translate(767.484 4353.306)" fill="#0f0032"/>
    <path id="Path_17724" data-name="Path 17724" d="M2.248,0A1.161,1.161,0,0,0,1.124.88Q.565,3.129.031,5.391a1.16,1.16,0,0,0,2.257.535q.532-2.252,1.087-4.49A1.161,1.161,0,0,0,2.248,0" transform="translate(771.893 4335.306)" fill="#0f0032"/>
    <path id="Path_17725" data-name="Path 17725" d="M2.248,0A1.161,1.161,0,0,0,1.124.88Q.565,3.129.031,5.391a1.16,1.16,0,0,0,2.257.535q.532-2.252,1.087-4.49A1.161,1.161,0,0,0,2.248,0" transform="translate(776.893 4316.814)" fill="#0f0032"/>
    <path id="Path_17393" data-name="Path 17393" d="M5.633,0a1.158,1.158,0,0,0-.292.037Q3.089.624.849,1.244a1.158,1.158,0,1,0,.619,2.231q2.221-.615,4.458-1.2A1.159,1.159,0,0,0,5.633,0" transform="translate(1018.732 4097.313)" fill="#0f0032"/>
    <path id="Path_17394" data-name="Path 17394" d="M125.783,0a1.107,1.107,0,0,0-.364.058q-4.73,1.571-9.392,3.274a1.16,1.16,0,1,0,.8,2.178q4.629-1.692,9.323-3.253A1.157,1.157,0,0,0,125.783,0M100.3,9.629a1.152,1.152,0,0,0-.452.093q-4.584,1.95-9.1,4.022a1.159,1.159,0,0,0,.968,2.106q4.483-2.061,9.031-4a1.158,1.158,0,0,0-.452-2.224M75.668,21.287a1.164,1.164,0,0,0-.535.132q-4.414,2.311-8.746,4.745a1.158,1.158,0,0,0,1.135,2.018q4.306-2.419,8.684-4.708a1.159,1.159,0,0,0-.538-2.187m-23.606,13.6a1.175,1.175,0,0,0-.619.178q-4.209,2.658-8.331,5.431a1.159,1.159,0,0,0,1.3,1.923q4.1-2.756,8.271-5.394a1.158,1.158,0,0,0-.616-2.138M29.621,50.342a1.15,1.15,0,0,0-.7.232q-3.979,2.982-7.868,6.079A1.159,1.159,0,1,0,22.5,58.467q3.861-3.075,7.815-6.038a1.159,1.159,0,0,0-.7-2.087M8.491,67.542a1.156,1.156,0,0,0-.767.29Q4,71.119.366,74.521a1.159,1.159,0,0,0,1.585,1.691q3.6-3.378,7.307-6.642a1.158,1.158,0,0,0-.767-2.027" transform="translate(877.511 4103.555)" fill="#0f0032"/>
    <path id="Path_17395" data-name="Path 17395" d="M4.353,0a1.152,1.152,0,0,0-.834.354Q1.907,2.029.315,3.723A1.157,1.157,0,1,0,2,5.308Q3.586,3.626,5.187,1.962A1.158,1.158,0,0,0,4.353,0" transform="translate(861.938 4189.951)" fill="#0f0032"/>
    <path id="Path_17396" data-name="Path 17396" d="M1.223,0a1.285,1.285,0,0,0-.23.021A1.163,1.163,0,0,0,.022,1.374Q.476,3.64.9,5.917a1.214,1.214,0,0,0,1.411.941A1.166,1.166,0,0,0,3.3,5.519Q2.877,3.225,2.42.943A1.206,1.206,0,0,0,1.223,0" transform="translate(1400.468 4361.848)" fill="#0f0032"/>
    <g id="Group_323" data-name="Group 323" transform="translate(1403.798 4411.306)">
      <path id="Path_17399" data-name="Path 17399" d="M1.158,0A1.159,1.159,0,0,0,0,1.158V5.792a1.158,1.158,0,1,0,2.317,0V1.158A1.159,1.159,0,0,0,1.158,0" transform="translate(0 0)" fill="#0f0032"/>
      <path id="Path_17400" data-name="Path 17400" d="M1.158,0A1.157,1.157,0,0,0,0,1.158v8.936a1.158,1.158,0,1,0,2.317,0V1.158A1.157,1.157,0,0,0,1.158,0m0,24.575A1.159,1.159,0,0,0,0,25.733v8.936a1.158,1.158,0,0,0,2.317,0V25.733a1.159,1.159,0,0,0-1.158-1.158m0,24.577A1.157,1.157,0,0,0,0,50.31v8.936a1.158,1.158,0,0,0,2.317,0V50.31a1.157,1.157,0,0,0-1.158-1.158m0,24.575A1.157,1.157,0,0,0,0,74.884V83.82a1.158,1.158,0,1,0,2.317,0V74.884a1.157,1.157,0,0,0-1.158-1.158m0,24.575A1.159,1.159,0,0,0,0,99.459V108.4a1.158,1.158,0,0,0,2.317,0V99.459A1.159,1.159,0,0,0,1.158,98.3" transform="translate(0 20.272)" fill="#0f0032"/>
    </g>
    <g id="Group_324" data-name="Group 324" transform="translate(1403.798 4680.958)">
      <path id="Path_17399-2" data-name="Path 17399" d="M1.158,0A1.159,1.159,0,0,0,0,1.158V5.792a1.158,1.158,0,1,0,2.317,0V1.158A1.159,1.159,0,0,0,1.158,0" transform="translate(0 0)" fill="#0f0032"/>
      <path id="Path_17400-2" data-name="Path 17400" d="M1.158,0A1.157,1.157,0,0,0,0,1.158v8.936a1.158,1.158,0,1,0,2.317,0V1.158A1.157,1.157,0,0,0,1.158,0m0,24.575A1.159,1.159,0,0,0,0,25.733v8.936a1.158,1.158,0,0,0,2.317,0V25.733a1.159,1.159,0,0,0-1.158-1.158m0,24.577A1.157,1.157,0,0,0,0,50.31v8.936a1.158,1.158,0,0,0,2.317,0V50.31a1.157,1.157,0,0,0-1.158-1.158m0,24.575A1.157,1.157,0,0,0,0,74.884V83.82a1.158,1.158,0,1,0,2.317,0V74.884a1.157,1.157,0,0,0-1.158-1.158m0,24.575A1.159,1.159,0,0,0,0,99.459V108.4a1.158,1.158,0,0,0,2.317,0V99.459A1.159,1.159,0,0,0,1.158,98.3" transform="translate(0 20.272)" fill="#0f0032"/>
    </g>
    <path id="Path_17401" data-name="Path 17401" d="M1.221,0A1.191,1.191,0,0,0,0,1.158V5.792A1.191,1.191,0,0,0,1.221,6.95,1.191,1.191,0,0,0,2.442,5.792V1.158A1.191,1.191,0,0,0,1.221,0" transform="translate(1403.742 4624.456)" fill="#0f0032"/>
    <path id="Path_17405" data-name="Path 17405" d="M78.772,0a78.772,78.772,0,1,0,78.772,78.772A78.862,78.862,0,0,0,78.772,0" transform="translate(115.308 4560.395)" fill="#109194"/>
    <path id="Path_17406" data-name="Path 17406" d="M132.059,66.03a66.03,66.03,0,1,0-66.03,66.03,66.03,66.03,0,0,0,66.03-66.03" transform="translate(128.051 4573.138)" fill="#fff"/>
    <path id="Path_17409" data-name="Path 17409" d="M83.018,0C37.241,0,0,35.336,0,78.772s37.241,78.772,83.018,78.772,83.018-35.336,83.018-78.772S128.795,0,83.018,0" transform="translate(1041.922 3989.429)" fill="#109194"/>
    <path id="Path_17410" data-name="Path 17410" d="M139.177,66.03C139.177,29.563,108.021,0,69.589,0S0,29.563,0,66.03s31.156,66.03,69.589,66.03,69.589-29.563,69.589-66.03" transform="translate(1055.351 4002.171)" fill="#fff"/>
    <path id="Path_17415" data-name="Path 17415" d="M17.17,11.237H1.353A1.353,1.353,0,0,1,0,9.886V5.836A1.353,1.353,0,0,1,1.353,4.483,1.353,1.353,0,0,0,2.706,3.132V1.351A1.351,1.351,0,0,1,4.057,0h10.41a1.353,1.353,0,0,1,1.353,1.351V3.132A1.351,1.351,0,0,0,17.17,4.483a1.351,1.351,0,0,1,1.351,1.353v4.05a1.351,1.351,0,0,1-1.351,1.351" transform="translate(180.183 4599.04)" fill="#fff"/>
    <g id="Group_559" data-name="Group 559" transform="translate(1319.583 4526)">
      <g id="Group_329" data-name="Group 329">
        <path id="Path_17402" data-name="Path 17402" d="M78.772,0a78.772,78.772,0,1,0,78.772,78.772A78.86,78.86,0,0,0,78.772,0" fill="#109194"/>
        <path id="Path_17418" data-name="Path 17418" d="M132.059,66.03a66.03,66.03,0,1,0-66.03,66.03,66.03,66.03,0,0,0,66.03-66.03" transform="translate(12.742 12.74)" fill="#fff"/>
      </g>
      <g id="Group_330" data-name="Group 330" transform="translate(40.779 44.083)">
        <path id="Path_17419" data-name="Path 17419" d="M9.939,2.3c.315,1.86.621,3.6.994,5.4.315,1.552-.063,2.048-1.675,2.048H2.5v32.22c-.744-.313-1.427-.5-2.048-.806a1.023,1.023,0,0,1-.313-.744V9.322A4.265,4.265,0,0,1,1.313,6.28c1.552-1.615,3.04-3.29,4.532-4.967A3.7,3.7,0,0,1,8.825.011H40.98a3.473,3.473,0,0,1,3.73,3.2,3.564,3.564,0,0,1,0,.588V58.114A3.491,3.491,0,0,1,41.54,61.9a3.424,3.424,0,0,1-.616,0H3.8A3.478,3.478,0,0,1,.014,58.761a3.81,3.81,0,0,1,0-.586V54.2c.809.185,1.552.313,2.3.5v3.54c0,.992.373,1.427,1.36,1.427H40.975c.994,0,1.362-.436,1.362-1.427V3.854c0-.994-.373-1.427-1.362-1.427H10.187c.067-.185-.058-.123-.243-.123M3.487,7.327H8.51c-.313-1.552-.558-2.98-.869-4.594C6.218,4.29,4.916,5.779,3.487,7.332Z" transform="translate(28.438 11.42)" fill="#ff8300"/>
        <path id="Path_17420" data-name="Path 17420" d="M42.355,9.067v-5.4c0-.994-.436-1.427-1.427-1.427H10.263A2.161,2.161,0,0,0,9.7,2.3c.313,1.8.619,3.54.931,5.278.06.185.06.436.123.621.125.994-.313,1.49-1.3,1.552h-7.2V57.86c0,1.362.313,1.675,1.673,1.675H16.713a2.109,2.109,0,0,1,1.675.621c.558.558,1.242,1.056,1.988,1.675-.313,0-.558.063-.744.063H3.8a3.51,3.51,0,0,1-3.79-3.2,3.372,3.372,0,0,1,0-.649V9.32A4.019,4.019,0,0,1,1.2,6.34C2.75,4.728,4.239,3.05,5.729,1.375a3.914,3.914,0,0,1,3.1-1.36H40.926a3.473,3.473,0,0,1,3.781,3.139,3.277,3.277,0,0,1,0,.584V8.891c0,.063-.06.063-.06.185ZM3.245,7.332h5.09c-.313-1.552-.558-2.979-.869-4.594C6.039,4.29,4.675,5.78,3.245,7.332" fill="#ff8300"/>
        <path id="Path_17421" data-name="Path 17421" d="M25.188,31.064c-2.111-.188-4.1-.248-6.082-.561A22.933,22.933,0,0,1,.233,11.449,20.192,20.192,0,0,1,1.415.959,1.2,1.2,0,0,1,2.833.025h.009c.621.125.931.621.869,1.427C3.275,9.895,6.876,16.227,14.076,20.573A20.192,20.192,0,0,0,24.257,23.3h.681a1.226,1.226,0,0,1,.315-.063c0-.746-.063-1.552,0-2.359.063-.436.315-1.056.621-1.179a1.369,1.369,0,0,1,1.36.248c2.546,1.923,5.09,3.976,7.641,5.959.931.684.869,1.427,0,2.173-2.484,1.988-5.025,3.976-7.511,5.959a1.352,1.352,0,0,1-1.427.313c-.561-.248-.683-.744-.683-1.36-.065-.755-.065-1.376-.065-1.935M2.344,10.145A20.66,20.66,0,0,0,25.1,28.46h.021V25.666C14.2,25.353,6.5,20.328,2.344,10.145m30.107,16.76c-1.675-1.3-3.29-2.546-4.9-3.848v7.754C29.221,29.451,30.836,28.207,32.451,26.905Z" transform="translate(12.013 33.128)" fill="#ff8300"/>
        <path id="Path_17422" data-name="Path 17422" d="M14.228.031H25.9A2.379,2.379,0,0,1,28.63,2a2.323,2.323,0,0,1,0,.76V5.617a2.213,2.213,0,0,1-2.062,2.358,2.128,2.128,0,0,1-.3,0H2.375A2.213,2.213,0,0,1,.017,5.914a2.111,2.111,0,0,1,0-.3v-3.1A2.227,2.227,0,0,1,1.958.031a2.126,2.126,0,0,1,.542,0ZM2.311,5.742H26.278V2.392H2.311Z" transform="translate(36.63 23.936)" fill="#ff8300"/>
        <path id="Path_17423" data-name="Path 17423" d="M18.625,5.7c-.125.806-.248,1.49-.373,2.3H2.8C.871,8.007,0,7.2,0,5.213V2.3A2.2,2.2,0,0,1,2.094,0H22.971a.809.809,0,0,1,.313.063,16.538,16.538,0,0,0-1.427,1.612c-.5.746-1.179.561-1.863.561H2.361V5.651c5.4.06,10.8.06,16.264.06" transform="translate(7.96 12.552)" fill="#ff8300"/>
        <path id="Path_17424" data-name="Path 17424" d="M15.465,2.3H1.687a4.034,4.034,0,0,1-.867-.063A.976.976,0,0,1,.012,1.121,1.013,1.013,0,0,1,.881.067,2.439,2.439,0,0,1,1.564,0H29.31a2.264,2.264,0,0,1,.683.063,1.034,1.034,0,0,1,.869,1.117A1.075,1.075,0,0,1,29.994,2.3a3.772,3.772,0,0,1-.869.062C24.591,2.3,20.059,2.3,15.465,2.3" transform="translate(35.455 35.382)" fill="#ff8300"/>
        <path id="Path_17425" data-name="Path 17425" d="M15.338,2.236H1a1.046,1.046,0,0,1-.994-1.1V1.119A1.015,1.015,0,0,1,.911,0C.941,0,.969,0,1,0H29.492c.869,0,1.36.436,1.3,1.179,0,.684-.5,1.119-1.36,1.119h-1.49c-4.168-.063-8.389-.063-12.608-.063" transform="translate(35.52 41.222)" fill="#ff8300"/>
        <path id="Path_17426" data-name="Path 17426" d="M15.4,0H29.059a4.052,4.052,0,0,1,.869.063,1.067,1.067,0,0,1,.931,1.054,1.035,1.035,0,0,1-.931,1.117,1.993,1.993,0,0,1-.621,0H1.558a2.991,2.991,0,0,1-.746-.06A1.007,1.007,0,0,1,.006,1.12.964.964,0,0,1,.812.066,3.916,3.916,0,0,1,1.681,0Z" transform="translate(35.52 46.868)" fill="#ff8300"/>
        <path id="Path_17427" data-name="Path 17427" d="M.127,0H22.1a2.989,2.989,0,0,1,.746.063,1.034,1.034,0,0,1,.869,1.117A1.079,1.079,0,0,1,22.851,2.3a3.766,3.766,0,0,1-.869.06H3.542a2.226,2.226,0,0,1-1.552-.5A23.752,23.752,0,0,0,0,.317C.125.127.125.065.125,0" transform="translate(42.599 52.647)" fill="#ff8300"/>
        <path id="Path_17428" data-name="Path 17428" d="M0,2.173C.931,1.427,1.675.813,2.484.248A1.555,1.555,0,0,1,3.29,0H20.976c.869,0,1.362.436,1.362,1.119S21.9,2.236,21.1,2.236H.5c-.183.062-.25,0-.5-.063" transform="translate(44.027 64.066)" fill="#ff8300"/>
        <path id="Path_17429" data-name="Path 17429" d="M19.433.06V2.233c-.248,0-.433.06-.683.06H1.494a2.081,2.081,0,0,1-.621-.06A1.035,1.035,0,0,1,0,1.114.98.98,0,0,1,.906.063h.03C1.061.063,1.251,0,1.371,0H19a.772.772,0,0,0,.433.063" transform="translate(6.841 23.969)" fill="#ff8300"/>
        <path id="Path_17430" data-name="Path 17430" d="M19.268.067V2.24c-.185,0-.373.06-.558.06H1.333a1.682,1.682,0,0,1-.994-.248A1.386,1.386,0,0,1,.027.873C.087.56.522.314.833.067A1.57,1.57,0,0,1,1.391,0H18.7a1.223,1.223,0,0,0,.563.063" transform="translate(7.009 29.671)" fill="#ff8300"/>
        <path id="Path_17431" data-name="Path 17431" d="M.373,2.233C.248,1.487.125.806,0,.06.125.06.373,0,.558,0h14.9c.313,0,.744,0,.931.248a1.585,1.585,0,0,1,.433,1.117c-.06.315-.433.621-.744.869-.125.125-.373.063-.621.063H.869a1.334,1.334,0,0,0-.5-.062" transform="translate(49.491 58.358)" fill="#ff8300"/>
        <rect id="Rectangle_146" data-name="Rectangle 146" width="8.317" height="2.173" transform="translate(17.957 35.511)" fill="#ff8300"/>
        <path id="Path_17432" data-name="Path 17432" d="M7.634,0V2.233H1.487c-.433,0-.744-.123-.866-.556C.433,1.117.248.621,0,0Z" transform="translate(18.646 41.222)" fill="#ff8300"/>
        <path id="Path_17434" data-name="Path 17434" d="M4.532,2.111C2.173,2.484,1.182,2.048,0,0H4.532Z" transform="translate(21.745 46.996)" fill="#ff8300"/>
      </g>
    </g>
    <text id="Let_the_automatic_citation_generator_handle_formatting._Say_goodbye_to_manual_errors." data-name="Let the automatic citation 
generator handle formatting. 
Say goodbye to manual errors." transform="translate(1487 4296.666)" font-size="22" font-family="Montserrat-Regular, Montserrat" letter-spacing="-0.009em"><tspan x="0" y="0">Let the automatic citation </tspan><tspan x="0" y="29">generator handle formatting. </tspan><tspan font-family="Montserrat-SemiBold, Montserrat" font-weight="600"><tspan x="0" y="58">Say goodbye to manual errors.</tspan></tspan></text>
    <text id="Participate_in_the_double-anonymous_pre_and_post-publication_open_review_process._Champion_transparency." data-name="Participate in the double-anonymous
pre and post-publication open
review process. Champion transparency." transform="translate(876 4302.903)" font-size="22" font-family="Montserrat-Regular, Montserrat" letter-spacing="-0.009em"><tspan x="0" y="0">Participate in the double-anonymous</tspan><tspan x="0" y="29">pre and post-publication open</tspan><tspan x="0" y="58">review process. </tspan><tspan y="58" font-family="Montserrat-SemiBold, Montserrat" font-weight="600">Champion transparency.</tspan></text>
    <text id="Experience_the_power_of_automation._All_your_information_at_your_command._Fast-track_your_research" data-name="Experience the power of automation.
All your information at your 
command. Fast-track your research" transform="translate(278 4623.3)" font-size="22" font-family="Montserrat-Regular, Montserrat" letter-spacing="-0.009em"><tspan x="0" y="0">Experience the power of automation.</tspan><tspan x="0" y="29">All your information at your </tspan><tspan x="0" y="58">command. </tspan><tspan y="58" font-family="Montserrat-Bold, Montserrat" font-weight="700">Fast-track your research</tspan></text>
    <text id="Use_our_automated_research_article_template_to_simplify_writing._Write_with_ease_" data-name="Use our automated research article template to simplify writing. 
Write with ease
" transform="translate(852 4579.315)" font-size="24" font-family="Montserrat-Regular, Montserrat" letter-spacing="-0.009em"><tspan x="0" y="23">Use our automated research article </tspan><tspan x="0" y="52">template to simplify writing. </tspan><tspan font-family="Montserrat-Bold, Montserrat" font-weight="700"><tspan x="0" y="81">Write with ease</tspan><tspan x="0" y="110"></tspan></tspan></text>
    <rect id="Rectangle_117" data-name="Rectangle 117" width="227.469" height="55.615" transform="translate(276 4243.525)" fill="none"/>
    <text id="SIMPLIFY_CITATIONS" data-name="SIMPLIFY CITATIONS" transform="translate(1487 4265.903)" fill="#109194" font-size="24" font-family="Montserrat-SemiBold, Montserrat" font-weight="600"><tspan x="0" y="0">SIM</tspan><tspan y="0" letter-spacing="-0.01em">P</tspan><tspan y="0">LIFY CITATIONS</tspan></text>
    <g id="Group_560" data-name="Group 560" transform="translate(577.932 458.852)">
      <path id="Path_17413" data-name="Path 17413" d="M78.772,0a78.772,78.772,0,1,0,78.772,78.772A78.86,78.86,0,0,0,78.772,0" transform="translate(104.747 4064.563)" fill="#109194"/>
      <path id="Path_17414" data-name="Path 17414" d="M132.059,66.03a66.03,66.03,0,1,0-66.03,66.03,66.03,66.03,0,0,0,66.03-66.03" transform="translate(117.489 4077.306)" fill="#fff"/>
      <path id="Path_17326" data-name="Path 17326" d="M64.761,51.051V28.94H41.3v6.43h4c3.554,0,5.7,2.143,5.7,5.7V44.9a5.232,5.232,0,0,1-5.1,5.361c-.105,0-.21,0-.315,0H32.834a5.127,5.127,0,0,1-5.355-4.888c-.006-.119-.007-.239,0-.358-.056-1.467-.056-2.933,0-4.343a5.189,5.189,0,0,1,5.13-5.246h.06c1.523-.056,3.046,0,4.625,0V29H13.768V51.1h4c3.554,0,5.7,2.143,5.7,5.7v3.948A5.107,5.107,0,0,1,18.508,66c-.057,0-.114,0-.171,0q-6.6.086-13.2,0A5.08,5.08,0,0,1,0,60.977V56.523a5.154,5.154,0,0,1,4.94-5.359c.14-.006.28-.006.419,0h4.4V27.7c0-1.918.62-2.538,2.6-2.538H37.29V14.894H33.229c-3.61,0-5.754-2.143-5.754-5.753V5.3A5.172,5.172,0,0,1,32.514,0c.107,0,.213,0,.32,0H45.7A5.165,5.165,0,0,1,51,5.023a45.114,45.114,0,0,1,0,4.795A5.165,5.165,0,0,1,45.75,14.9c-1.467.056-2.877,0-4.4,0V25.161h24.2c2.708,0,3.159.451,3.159,3.1v22.9h4.456c2.538.056,4.738,1.467,5.077,3.892a25.033,25.033,0,0,1,0,7.107,4.778,4.778,0,0,1-4.851,3.892c-4.4.056-8.856.056-13.312,0a5.163,5.163,0,0,1-5.133-5.189v-4.34a5.135,5.135,0,0,1,4.963-5.3c.075,0,.151,0,.226,0a31.085,31.085,0,0,1,4.626-.172M39.205,3.839h-6.2c-1.185,0-1.579.4-1.636,1.523V9.31c0,1.128.451,1.523,1.636,1.523H45.472c1.128,0,1.579-.451,1.636-1.523V5.362c0-1.128-.451-1.523-1.636-1.523ZM11.625,61.994h6.318c1.072,0,1.523-.395,1.523-1.523V56.41c0-1.015-.451-1.467-1.467-1.467H5.251a1.254,1.254,0,0,0-1.41,1.41v4.061c0,1.185.4,1.523,1.579,1.579Zm55.053,0h6.2c1.241,0,1.579-.395,1.579-1.636V56.409c0-.959-.451-1.467-1.354-1.467H60.248a1.254,1.254,0,0,0-1.41,1.41v4.061c0,1.128.395,1.523,1.579,1.523,2.144.058,4.231.058,6.262.058M39.151,46.2H45.47c1.128,0,1.523-.395,1.523-1.467V40.788c0-1.128-.451-1.523-1.579-1.523H32.89c-1.128,0-1.523.395-1.523,1.579v3.723c0,1.241.395,1.636,1.692,1.636,2.031.054,4.062,0,6.092,0" transform="translate(143.936 4109.792)" fill="#ff8300"/>
    </g>
    <text id="Article_Structure" data-name="Article Structure" transform="translate(852 4570.222)" fill="#109194" font-size="24" font-family="Montserrat-SemiBold, Montserrat" font-weight="600"><tspan x="0" y="0">Article Structure</tspan></text>
    <rect id="Rectangle_118" data-name="Rectangle 118" width="103.824" height="26.615" transform="translate(852 4530.938)" fill="none"/>
    <text id="Benefit_from_low_article_publishing_fees._Quality_research_needn_t_break_the_bank." data-name="Benefit from low article publishing
fees. Quality research needn’t
break the bank." transform="translate(283 4281.494)" font-size="22" font-family="Montserrat-Regular, Montserrat"><tspan x="0" y="0">Benefit from low article publishing</tspan><tspan x="0" y="29">fees. </tspan><tspan y="29" font-family="Montserrat-SemiBold, Montserrat" font-weight="600">Quality research needn’t</tspan><tspan font-family="Montserrat-SemiBold, Montserrat" font-weight="600"><tspan x="0" y="58">break the bank.</tspan></tspan></text>
    <g id="Group_558" data-name="Group 558" transform="translate(-284.983 -29.01)">
      <path id="Path_17403" data-name="Path 17403" d="M78.772,0a78.772,78.772,0,1,0,78.772,78.772A78.86,78.86,0,0,0,78.772,0" transform="translate(393.983 4246.141)" fill="#109194"/>
      <path id="Path_17404" data-name="Path 17404" d="M132.059,66.03a66.03,66.03,0,1,0-66.03,66.03,66.028,66.028,0,0,0,66.03-66.03" transform="translate(406.726 4258.886)" fill="#fff"/>
      <g id="Group_312" data-name="Group 312" transform="translate(424.958 4278.767)">
        <path id="Path_17324" data-name="Path 17324" d="M0,67.283v-26.9c.488,0,.906-.07,1.254-.07H9.193a1.982,1.982,0,0,0,1.324-.626A28.277,28.277,0,0,1,21.525,29.656a1.635,1.635,0,0,0,.7-1.114c.07-1.532,0-3,0-4.6H40.753V26.8h7.523A22.652,22.652,0,0,1,53.85,7.439,22.254,22.254,0,0,1,66.668.339,22.688,22.688,0,0,1,83.734,41.16,58.705,58.705,0,0,1,86.1,49.241c1.742,11.423-2.3,20.408-11.636,27.1a2.776,2.776,0,0,0-1.254,2.02c-.42,3.622-.9,7.177-1.392,10.867-.348,0-.7.07-1.044.07H57.47c-.906,0-1.184-.348-1.324-1.184-.346-2.438-.841-4.807-1.322-7.245h-14c-.488,2.789-1.044,5.5-1.532,8.359h-15.4c-.486-3.2-.981-6.409-1.392-9.613a2.01,2.01,0,0,0-1.184-1.74A26.471,26.471,0,0,1,10.66,68.182a1.656,1.656,0,0,0-1.6-.843c-2.929-.056-5.925-.056-9.06-.056m68.893,18.6c.42-3.342.906-6.547,1.254-9.751a2.337,2.337,0,0,1,1.324-1.95,23.458,23.458,0,0,0,11.356-24.8,20.46,20.46,0,0,0-2.3-6.549c-.42.21-.766.348-1.044.488a22.379,22.379,0,0,1-28.84-10.515c-1.116-2.228-2.231-3.134-4.669-2.786a43.381,43.381,0,0,1-5.225.07V47.644a17.663,17.663,0,0,1-10.865-2.16,15.963,15.963,0,0,1-7.66-12.471A23.54,23.54,0,0,0,14,40.466c-.7,1.044-1.184,2.508-2.158,3-1.044.561-2.508.14-3.763.14h-4.6V63.941h7.663a1.459,1.459,0,0,1,1.6.981,20.956,20.956,0,0,0,10.094,9.821A4.469,4.469,0,0,1,25.9,79.2c.14,2.228.626,4.459.981,6.617h9.753c.488-2.508.981-4.944,1.322-7.383.14-.768.42-1.046,1.184-1.046,5.853,0,11.7.07,17.554,0,.906,0,1.116.348,1.254,1.116.348,2.158.766,4.386,1.184,6.547a1.153,1.153,0,0,0,.841.768c2.849.13,5.776.06,8.91.06M70.7,41.86a19.612,19.612,0,1,0-.15,0ZM37.4,44.3V27.158H25.63c-.694,10.449,4.183,17.486,11.776,17.136Z" transform="translate(0 0)" fill="#ff8300"/>
        <path id="Path_17325" data-name="Path 17325" d="M14.492,7.038a4.749,4.749,0,0,0-4.178-3.693c-2.649-.14-5.227-.07-7.873-.07a5.932,5.932,0,0,1-1.114-.07A1.519,1.519,0,0,1,0,1.605,1.572,1.572,0,0,1,1.4.073,3.392,3.392,0,0,1,2.238,0H21.319a1.768,1.768,0,0,1,1.81,1.6,1.647,1.647,0,0,1-1.613,1.68h0a1.384,1.384,0,0,1-.193-.007h-3.97a2.646,2.646,0,0,0-.768.07c.421,1.121.843,2.228,1.324,3.274.07.208.42.346.626.42.906.07,1.812,0,2.786,0a1.7,1.7,0,0,1,1.872,1.521v.006c0,.048.007.1.01.145a1.663,1.663,0,0,1-1.7,1.617,1.215,1.215,0,0,1-.181-.014H17.907A9.352,9.352,0,0,1,15.329,14.7,8.217,8.217,0,0,1,9.9,16.862c-1.324.07-2.579,0-4.111,0l.766.766c2.994,2.856,5.991,5.713,9.055,8.569a3.216,3.216,0,0,1,.488.488,1.582,1.582,0,0,1,.133,2.233l-.063.065a1.6,1.6,0,0,1-2.26.108l0,0c-.037-.034-.072-.069-.106-.106-1.81-1.74-3.622-3.412-5.432-5.155-2.508-2.368-4.947-4.737-7.453-7.1a1.879,1.879,0,0,1-.7-2.158c.348-.906,1.121-1.044,2.02-1.044H9.824a4.783,4.783,0,0,0,4.6-3.207c-.35,0-.628-.07-.906-.07H2.368a4.477,4.477,0,0,1-.981-.07A1.486,1.486,0,0,1,.063,8.787a1.539,1.539,0,0,1,.981-1.672,3.23,3.23,0,0,1,1.184-.14H13.657a3.153,3.153,0,0,0,.839.068" transform="translate(59.213 9.545)" fill="#ff8300"/>
      </g>
    </g>
    <g id="Group_313" data-name="Group 313" transform="translate(158.698 4596.657)">
      <path id="Path_17378" data-name="Path 17378" d="M.006,43.465V10.347A9.949,9.949,0,0,1,8.53.147,10.988,10.988,0,0,1,10.7.007h53.38c1.258,0,1.956.559,1.956,1.467s-.7,1.467-1.956,1.467H10.557c-3.563,0-6.219,1.816-7.267,4.821A7.085,7.085,0,0,0,10,17.124c1.258.07,2.585,0,3.843,0H63.659c2.026,0,2.376.349,2.376,2.375v65.12c0,1.886-.349,2.306-2.236,2.306H10.7c-6.5,0-10.69-4.192-10.69-10.69ZM63.1,20.128H16.006V83.99H63.1ZM2.871,17.054V77.143a6.974,6.974,0,0,0,5.24,6.638,36.54,36.54,0,0,0,4.821.419V20.059c-3.633.209-7.126-.071-10.061-3" transform="translate(0 0)" fill="#ff8300"/>
      <path id="Path_17379" data-name="Path 17379" d="M28.648.021H56.107a1.339,1.339,0,0,1,1.328,1.352c0,.016,0,.032,0,.048a1.3,1.3,0,0,1-1.2,1.4c-.043,0-.087,0-.131,0a3.366,3.366,0,0,1-.839,0H1.188a1.416,1.416,0,0,1,0-2.8,5.967,5.967,0,0,1,1.118,0Z" transform="translate(8.669 8.579)" fill="#ff8300"/>
      <path id="Path_17380" data-name="Path 17380" d="M13.339,26.239a13.378,13.378,0,0,1-12.3-8.1A12.681,12.681,0,0,1,3.764,4.091C7.817.038,12.707-.94,18.088.877c1.118.349,1.537,1.118,1.258,2.026s-1.118,1.118-2.306.7C10.821,1.5,4.463,4.93,3.14,11.148a10.264,10.264,0,0,0,9.293,12.157c6.218.349,10.83-3.7,11.319-9.992.07-.978.629-1.607,1.467-1.607s1.4.7,1.4,1.747c.135,6.917-6.014,12.786-13.28,12.786" transform="translate(23.429 39.532)" fill="#ff8300"/>
      <path id="Path_17381" data-name="Path 17381" d="M6.459,14.765c.559-.489.839-.769,1.118-1.048L20.576.93a6.231,6.231,0,0,1,.7-.629,1.4,1.4,0,0,1,1.887.14,1.35,1.35,0,0,1,.189,1.9c-.016.019-.032.038-.049.056a2.123,2.123,0,0,1-.559.559c-4.821,4.751-9.712,9.5-14.533,14.254-1.188,1.118-1.747,1.118-2.935,0C3.67,15.6,1.993,14.065.456,12.389a1.758,1.758,0,0,1-.419-1.537,1.584,1.584,0,0,1,1.118-.978,2.009,2.009,0,0,1,1.467.629c1.252,1.4,2.51,2.795,3.837,4.262" transform="translate(30.378 38.919)" fill="#ff8300"/>
    </g>
    <text id="Automated_Platform" data-name="Automated Platform" transform="translate(278 4592.222)" fill="#109194" font-size="24" font-family="Montserrat-SemiBold, Montserrat" font-weight="600" letter-spacing="-0.009em"><tspan x="0" y="0">AUTOMATED PLATFORM</tspan></text>
    <rect id="Rectangle_141" data-name="Rectangle 141" width="164.135" height="26.615" transform="translate(276 4575.823)" fill="none"/>
    <rect id="Rectangle_143-2" data-name="Rectangle 143" width="164.135" height="34.454" transform="translate(276 4575.823)" fill="none"/>
    <text id="Multiple_Review_Options" data-name="Multiple Review Options" transform="translate(876 4269.112)" fill="#109194" font-size="24" font-family="Montserrat-SemiBold, Montserrat" font-weight="600"><tspan x="0" y="0">Multiple Review Options</tspan></text>
    <g id="Group_562" data-name="Group 562" transform="translate(-14 549)">
      <path id="Path_17407" data-name="Path 17407" d="M76.455,152.911a76.455,76.455,0,1,1,76.455-76.455,76.543,76.543,0,0,1-76.455,76.455" transform="translate(728.646 3689.314)" fill="#109194"/>
      <path id="Path_17408" data-name="Path 17408" d="M132.059,66.029a66.03,66.03,0,1,0-66.03,66.03,66.03,66.03,0,0,0,66.03-66.03" transform="translate(739.071 3699.737)" fill="#fff"/>
      <g id="Group_318" data-name="Group 318" transform="translate(764.156 3725.117)">
        <path id="Path_17438" data-name="Path 17438" d="M12.16,13.6V3.474C12.16,0,12.16,0,15.694,0h60.56c2.1,0,2.336.24,2.336,2.4V43.851c0,1.977-.3,2.276-2.276,2.276H66.43V57.688c0,1.5-.419,1.917-1.917,1.917h-6.23V73.861c0,.779,0,1.737-.9,1.857A2.524,2.524,0,0,1,55.526,75c-4.912-4.852-9.764-9.7-14.616-14.616a2.5,2.5,0,0,0-1.977-.839H2.276C.239,59.544,0,59.3,0,57.268V15.816c0-2.1.24-2.336,2.4-2.336h8.386a4.92,4.92,0,0,0,1.374.117M2.76,56.906H39.539a3.614,3.614,0,0,1,2.935,1.258c3.953,4.013,7.967,7.967,11.92,11.98a3.757,3.757,0,0,1,.6,1.2c.18-.12.359-.3.539-.419V59c0-1.737.3-2.037,2.037-2.037h5.99V16.407H2.76Zm72.96-13.6V2.753H14.98V13.535H64.159c1.917,0,2.216.3,2.216,2.216v27.5c3.17.059,6.225.059,9.34.059Z" transform="translate(0 0)" fill="#ff8300"/>
        <path id="Path_17439" data-name="Path 17439" d="M4.073,8.086A3.977,3.977,0,0,1,0,4.206c0-.024,0-.049,0-.073A4.091,4.091,0,0,1,4.049,0h.024A4.027,4.027,0,0,1,8.086,4.041v.032A3.975,3.975,0,0,1,4.147,8.086H4.073m.18-5.571H3.714c-.359.479-.9.958-.958,1.5A1.148,1.148,0,0,0,4.074,5.333c.839-.06,1.438-.6,1.2-1.437C5.211,3.473,4.612,3,4.253,2.515Z" transform="translate(13.537 32.524)" fill="#ff8300"/>
        <path id="Path_17440" data-name="Path 17440" d="M4.074,8.084A3.977,3.977,0,0,1,0,4.2c0-.024,0-.049,0-.073a4.044,4.044,0,1,1,8.086-.174c0,.038,0,.076,0,.114A3.976,3.976,0,0,1,4.149,8.084H4.074m.419-5.391c-1.258.12-1.857.6-1.677,1.378A2.171,2.171,0,0,0,4.074,5.329,1.108,1.108,0,0,0,5.392,4.011a12.6,12.6,0,0,0-.9-1.314Z" transform="translate(29.111 32.526)" fill="#ff8300"/>
        <path id="Path_17441" data-name="Path 17441" d="M8.027,4.079A4.013,4.013,0,1,1,0,4.079a4.014,4.014,0,1,1,8.027-.128c0,.043,0,.085,0,.128m-5.571-.24v.539c.479.36.958.9,1.5.959A1.128,1.128,0,0,0,5.274,4.019c-.06-.839-.6-1.437-1.438-1.2-.482.122-.9.661-1.38,1.021Z" transform="translate(44.745 32.518)" fill="#ff8300"/>
      </g>
    </g>
    <text id="_45_days_to_publish_Pre-publish_Peer_Review_Articles._25_days_to_publish_Post_Publish_Open_Peer_Review_articles._You_choose." data-name="45 days to publish Pre-publish
Peer Review Articles. 25 days 
to publish Post Publish Open
Peer Review articles.
You choose." transform="translate(1480 4815.544)" font-size="22" font-family="Montserrat-Regular, Montserrat"><tspan x="0" y="0">45 days to publish Pre-publish</tspan><tspan x="0" y="29">Peer Review Articles. 25 days </tspan><tspan x="0" y="58">to publish Post Publish Open</tspan><tspan x="0" y="87">Peer Review articles.</tspan><tspan font-family="Montserrat-Bold, Montserrat" font-weight="700"><tspan x="0" y="116">You choose.</tspan></tspan></text>
    <text id="Engage_and_reap_rewards_called_Mudras_in_INR._Reinvest_it_in_your_research._Win." data-name="Engage and reap rewards called Mudras in INR.
Reinvest it in your research. Win." transform="translate(1216.627 4073.592)" font-size="22" font-family="Montserrat-Regular, Montserrat"><tspan x="0" y="0">Engage and reap rewards called Mudras in INR.</tspan><tspan x="0" y="29">Reinvest it in your research. </tspan><tspan y="29" font-family="Montserrat-SemiBold, Montserrat" font-weight="600">Win.</tspan></text>
    <text id="Harness_automated_checks_for_grammar_profanity_and_plagiarism._Keep_it_clean_and_crisp." data-name="Harness automated checks 
for grammar, profanity, and
plagiarism. Keep it clean and crisp." transform="translate(549.682 4862.269)" font-size="22" font-family="Montserrat-Regular, Montserrat"><tspan x="0" y="21">Harness automated checks </tspan><tspan x="0" y="50">for grammar, profanity, and</tspan><tspan x="0" y="79">plagiarism. </tspan><tspan y="79" font-family="Montserrat-SemiBold, Montserrat" font-weight="600">Keep it clean and crisp.</tspan></text>
    <text id="Publish_Faster" data-name="Publish Faster" transform="translate(1480 4783.451)" fill="#109194" font-size="24" font-family="Montserrat" font-weight="600"><tspan x="0" y="0">Publish Faster</tspan></text>
    <text id="EARN_MUDRAS" data-name="EARN MUDRAS" transform="translate(1216.627 4043.499)" fill="#109194" font-size="24" font-family="Montserrat" font-weight="600"><tspan x="0" y="0">EARN MUDRAS</tspan></text>
    <g id="Group_563" data-name="Group 563" transform="translate(1319.583 4235)">
      <path id="Path_17416" data-name="Path 17416" d="M78.772,0a78.772,78.772,0,1,0,78.772,78.772A78.86,78.86,0,0,0,78.772,0" transform="translate(0)" fill="#109194"/>
      <path id="Path_17417" data-name="Path 17417" d="M132.059,66.03a66.03,66.03,0,1,0-66.03,66.03,66.03,66.03,0,0,0,66.03-66.03" transform="translate(12.744 12.742)" fill="#fff"/>
      <g id="Group_566" data-name="Group 566" transform="translate(44.917 45.629)">
        <path id="Path_17369" data-name="Path 17369" d="M6.04,52.126v-1.1c.053-15.2.053-30.456.1-45.658A7.071,7.071,0,0,1,6.3,3.527,4.6,4.6,0,0,1,10.931,0h28.4c6.943,0,13.887.1,20.83.053a7.766,7.766,0,0,1,6.207,2.42A6.9,6.9,0,0,1,68.262,7c.052,3,.052,5.944,0,8.942,0,.947-.421,1.262-1.473,1.262h-10.1c-.736,0-.947.158-.947.947V56.445a9.273,9.273,0,0,1-6.523,9.1,11.533,11.533,0,0,1-3.577.526c-11.52-.053-22.987,0-34.506,0A10.175,10.175,0,0,1,2.72,62.389,13.548,13.548,0,0,1,.038,53.236c0-.736.421-1.052,1.262-1.052H5.087a5.422,5.422,0,0,1,.953-.058M8.3,52.073c.315,0,.526.053.789.053,3.734,0,7.469-.053,11.2-.053,6.049,0,12.046-.053,18.095-.053,1.1,0,1.473.368,1.42,1.473,0,.316-.053.631-.053.947a18.633,18.633,0,0,0,.684,5.891,4.238,4.238,0,0,0,2.63,2.946,8.453,8.453,0,0,0,6.312-.21c2.946-1.315,4.208-3.735,4.208-6.891V7.941a6.3,6.3,0,0,1,.211-2c.421-1.262.947-2.472,1.473-3.682H49.064q-19.016,0-37.978-.053A2.53,2.53,0,0,0,8.351,4.889V5.2C8.3,20.617,8.3,35.977,8.246,51.389a3.5,3.5,0,0,0,.056.684m-6,2.209c.1.736.1,1.368.21,2C3.3,61.174,6.4,63.8,11.349,63.8H39.911C37.6,60.911,37.6,57.6,37.544,54.283ZM66.107,14.936c0-.263.052-.526.052-.736,0-2.1-.052-4.261,0-6.365.053-3.1-2.1-5.786-6.1-5.471a4.574,4.574,0,0,0-4.1,4.313c-.211,2.683-.1,5.418-.1,8.153,0,.053.052.105.1.158,3.313-.051,6.732-.051,10.152-.051Z" transform="translate(0 0)" fill="#ff8300"/>
        <path id="Path_17370" data-name="Path 17370" d="M19.094,0H36.663c1.315,0,1.631.316,1.631,1.631v8.416c0,1.21-.316,1.578-1.525,1.578H1.526C.369,11.625,0,11.257,0,10.1V1.631C0,.369.316.053,1.578.053,7.417,0,13.255,0,19.094,0M2.209,9.31H36.032V2.261H2.209Z" transform="translate(12.037 7.257)" fill="#ff8300"/>
        <path id="Path_17371" data-name="Path 17371" d="M19.05.023H36.461A3.243,3.243,0,0,1,37.2.075a1.066,1.066,0,0,1,0,2.1,3.183,3.183,0,0,1-.736.053H.955A1.026,1.026,0,0,1,0,1.135c0-.021,0-.042.006-.063a1.041,1.041,0,0,1,1-1.052,3.483,3.483,0,0,1,.736,0Z" transform="translate(12.501 34.744)" fill="#ff8300"/>
        <path id="Path_17372" data-name="Path 17372" d="M19.041,2.154H1.1A1.068,1.068,0,0,1,0,1.121V1.1A1.1,1.1,0,0,1,1.052,0H36.3a5.045,5.045,0,0,1,.894.053,1.014,1.014,0,0,1,.841,1.157,1.025,1.025,0,0,1-.947,1,3.482,3.482,0,0,1-.736,0c-5.733-.058-11.519-.058-17.306-.058" transform="translate(12.511 43.922)" fill="#ff8300"/>
        <path id="Path_17373" data-name="Path 17373" d="M13.416.012h11.73a1.565,1.565,0,0,1,1,.21,1.4,1.4,0,0,1,.474,1.052c0,.316-.368.631-.684.842-.21.158-.578.105-.894.105H1.266C.424,2.168-.049,1.748,0,1.064,0,.433.477.012,1.266.012h12.15Z" transform="translate(23.607 25.655)" fill="#ff8300"/>
        <path id="Path_17374" data-name="Path 17374" d="M2.542,4.037C3.489,2.827,4.436,1.723,5.33.565A1.188,1.188,0,0,1,6.908.144a1,1,0,0,1,.427,1.348.984.984,0,0,1-.164.23c-1.21,1.525-2.42,3-3.63,4.471a1.059,1.059,0,0,1-1.478.24,1.145,1.145,0,0,1-.1-.082C1.437,5.93.911,5.509.437,5.089A1.064,1.064,0,0,1,.206,3.6a1.044,1.044,0,0,1,.073-.09A1.09,1.09,0,0,1,1.815,3.37c.014.011.028.024.042.036.211.21.422.372.685.631" transform="translate(12.02 23.419)" fill="#ff8300"/>
      </g>
    </g>
    <text id="Publish_to_UGC_India_and_International_publishing_standards._Go_global" data-name="Publish to UGC India and
International publishing 
standards. Go global" transform="translate(1487 4593)" font-size="22" font-family="Montserrat-Regular, Montserrat"><tspan x="0" y="0">Publish to UGC India and</tspan><tspan x="0" y="29">International publishing </tspan><tspan x="0" y="58">standards. </tspan><tspan y="58" font-family="Montserrat-Bold, Montserrat" font-weight="700">Go global</tspan></text>
    <rect id="Rectangle_98" data-name="Rectangle 98" width="292.866" height="84.615" transform="translate(1487 4582.596)" fill="none"/>
    <text id="ENSURE_COMPLIANCE" data-name="ENSURE COMPLIANCE" transform="translate(1487 4564)" fill="#109194" font-size="24" font-family="Montserrat-SemiBold, Montserrat" font-weight="600"><tspan x="0" y="0">ENSURE COMPLIANCE</tspan></text>
    <rect id="Rectangle_125" data-name="Rectangle 125" width="170.375" height="26.616" transform="translate(1487 4547.617)" fill="none"/>
    <g id="Group_564" data-name="Group 564" transform="translate(1319.583 4787)">
      <path id="Path_17443" data-name="Path 17443" d="M78.772,0a78.772,78.772,0,1,0,78.772,78.772A78.86,78.86,0,0,0,78.772,0" fill="#109194"/>
      <path id="Path_17442" data-name="Path 17442" d="M132.059,66.03a66.03,66.03,0,1,0-66.03,66.03,66.03,66.03,0,0,0,66.03-66.03" transform="translate(12.745 12.74)" fill="#fff"/>
      <g id="Group_327" data-name="Group 327" transform="translate(45.984 41.967)">
        <path id="Path_12898" data-name="Path 12898" d="M58.462,39.009c.315.21.631.368.894.578a2.5,2.5,0,0,1,1.262,2.418c-.158.946.263,1.262.946,1.682,6.151,3.522,12.3,7.1,18.453,10.673.263.158.526.263.736.421A3.582,3.582,0,0,1,81.963,59.3a3.456,3.456,0,0,1-4.153,1.525,6.046,6.046,0,0,1-1.315-.631C70.607,56.779,64.666,53.362,58.777,50c-.315-.158-.631-.316-1.1-.578V72.394c0,1.525-.21,1.735-1.735,1.735H1.735C.21,74.129,0,73.918,0,72.394V11.934a2.222,2.222,0,0,1,.789-1.84c3.154-3.1,6.256-6.2,9.358-9.358A2.306,2.306,0,0,1,11.934,0H56.1c1.419,0,1.63.21,1.63,1.63V25.288a1.341,1.341,0,0,0,.789,1.419c1.525.788,2.944,1.682,4.416,2.524a3.4,3.4,0,0,1,1.788,4.048A3.477,3.477,0,0,1,60.986,35.7a1.24,1.24,0,0,0-.841.368C59.619,36.959,59.093,37.958,58.462,39.009ZM2.1,72.026H24.71c-.315-3.575.736-5.993,4.837-5.993V64.4A3.975,3.975,0,0,1,33.8,60.144H48.788a3.863,3.863,0,0,1,4.1,4.1V65.98c1.051.158,1.945.316,2.839.473V50.208c-1.1-.263-2.155-.526-3.26-.788A30.427,30.427,0,0,0,50.944,52.1,1.232,1.232,0,0,0,51,53.152a3.439,3.439,0,0,1-4.626,4.942c-3.523-2.05-7.1-4.1-10.62-6.151a3.367,3.367,0,0,1-1.682-4A3.319,3.319,0,0,1,37.7,45.582a.994.994,0,0,0,1.1-.631l2.366-4.1c2.366-4.048,4.679-8.149,7.045-12.2a6.358,6.358,0,0,1-.526-.736,3.43,3.43,0,0,1,4.731-4.732c1.052.631,2.155,1.209,3.26,1.893V2.051H12.25v8.57c0,1.367-.21,1.63-1.63,1.63H2.051C2.1,32.175,2.1,52.048,2.1,72.026ZM50,29.6c-3.312,5.678-6.519,11.3-9.779,16.982,3,1.735,5.836,3.365,8.727,5.047,3.312-5.678,6.519-11.251,9.779-16.929C55.833,32.964,52.942,31.281,50,29.6ZM26.812,72.026H55.833V70.974c0-2.418-.473-2.944-2.944-2.944-7.571,0-15.141.105-22.712-.053-3.628-.053-3.575,1.314-3.417,3.785A.694.694,0,0,0,26.812,72.026ZM31.6,66.033H50.944V64.455c0-1.63-.736-2.366-2.366-2.366H33.7c-1.209,0-2,.526-2.155,1.525C31.544,64.35,31.6,65.191,31.6,66.033Zm26.55-18.769c6.782,3.891,13.407,7.728,20.031,11.566a1.447,1.447,0,1,0,1.472-2.471,1.638,1.638,0,0,0-.526-.263c-6.256-3.628-12.513-7.255-18.769-10.83-.263-.158-.526-.263-.841-.421C59.093,45.634,58.672,46.37,58.147,47.264ZM50.418,24.447c-.368.368-.946.631-1.157,1.1a1.41,1.41,0,0,0,.789,1.84L60.46,33.384a1.5,1.5,0,0,0,2.261-.42c.42-.789.158-1.525-.789-2.1l-10.41-5.993A5.409,5.409,0,0,0,50.418,24.447Zm-.684,30.388a4.509,4.509,0,0,0-1-1.052c-3.417-2.05-6.887-4-10.357-5.993a1.488,1.488,0,0,0-2.261.421c-.421.788-.1,1.577.841,2.155,2.313,1.314,4.626,2.681,6.94,4,1.209.684,2.366,1.419,3.575,2.05A1.553,1.553,0,0,0,49.735,54.834ZM10.357,3.733,4,10.094h6.361ZM57.411,40.8c-1.262,2.208-2.524,4.416-3.785,6.572,1.367.894,1.683.841,2.419-.473.788-1.314,1.525-2.681,2.313-4C59.04,41.8,58.883,41.375,57.411,40.8Z" transform="translate(0 0)" fill="#ff8300"/>
        <path id="Path_12899" data-name="Path 12899" d="M14.984.023H28.495C29.7.023,29.967.286,30.02,1.5v3.68c0,.894-.368,1.314-1.262,1.314H1.262C.368,6.49,0,6.017,0,5.176V1.391C0,.286.263.023,1.367.023,5.888-.029,10.41.023,14.984.023Zm12.986,2H2V4.387H27.97Z" transform="translate(19.399 4.498)" fill="#ff8300"/>
        <path id="Path_12900" data-name="Path 12900" d="M10.62,2.011H1.577c-.263,0-.684.105-.841-.053C.421,1.7,0,1.275,0,.907,0,.644.473.276.841.066A1.751,1.751,0,0,1,1.577.013H19.715a2.206,2.206,0,0,1,.841.053c.316.21.736.526.736.841a1.462,1.462,0,0,1-.683,1c-.21.158-.631.105-.946.105Z" transform="translate(22.659 24.276)" fill="#ff8300"/>
        <path id="Path_12901" data-name="Path 12901" d="M5.355,7.63C7.3,5.212,9.14,2.951,11.033.69a1.869,1.869,0,0,1,.894-.683c.315-.052.894.21.946.421a1.624,1.624,0,0,1-.21,1.314c-1.472,1.893-3,3.733-4.469,5.573-.578.736-1.157,1.472-1.787,2.155-.631.736-1.157.736-1.788.105C3.2,8.208,1.833,6.789.466,5.422c-.473-.473-.684-1-.158-1.525.526-.578,1.1-.368,1.577.105C2.989,5.212,4.146,6.368,5.355,7.63Z" transform="translate(6.894 17.343)" fill="#ff8300"/>
        <path id="Path_12902" data-name="Path 12902" d="M5.354,7.557C7.3,5.139,9.139,2.931,10.979.67c.158-.21.315-.526.526-.578a1.566,1.566,0,0,1,1.209.053c.21.158.21.736.263,1.1,0,.1-.105.21-.21.315C10.611,4.193,8.455,6.874,6.3,9.5a.958.958,0,0,1-1.577.052C3.3,8.136,1.831,6.716.412,5.244A.944.944,0,0,1,.307,3.772a.937.937,0,0,1,1.525.105C2.988,5.086,4.092,6.3,5.354,7.557Z" transform="translate(6.896 45.489)" fill="#ff8300"/>
        <path id="Path_12903" data-name="Path 12903" d="M5.465,7.491C7.252,5.283,8.987,3.127,10.722.972a3.354,3.354,0,0,1,.683-.789c.368-.158,1-.263,1.157-.105a1.973,1.973,0,0,1,.315,1.262c0,.21-.315.473-.526.684-1.945,2.366-3.838,4.731-5.783,7.1-.789,1-1.209,1-2.1.158L.523,5.335c-.473-.473-.789-1-.21-1.577.526-.526,1.1-.315,1.577.158C3.046,5.125,4.2,6.282,5.465,7.491Z" transform="translate(6.837 31.466)" fill="#ff8300"/>
        <path id="Path_12904" data-name="Path 12904" d="M5.45,7.478Q8.21,4.087,10.812.854c.21-.263.368-.631.631-.684.368-.158,1-.263,1.157-.053a1.973,1.973,0,0,1,.315,1.262c0,.21-.315.473-.526.684-1.945,2.366-3.838,4.732-5.783,7.1-.841,1.052-1.262,1.052-2.156.158L.56,5.428C.035,4.9-.281,4.376.35,3.8c.578-.526,1.1-.263,1.577.263C3.084,5.112,4.188,6.216,5.45,7.478Z" transform="translate(6.852 59.553)" fill="#ff8300"/>
        <path id="Path_12905" data-name="Path 12905" d="M8.254,1.945H1.314C.631,1.945.053,1.84,0,1.052,0,.21.578,0,1.314,0H15.3c.736,0,1.314.21,1.314,1.052,0,.788-.631.946-1.314.946C12.933,1.945,10.567,1.945,8.254,1.945Z" transform="translate(22.554 38.326)" fill="#ff8300"/>
        <path id="Path_12906" data-name="Path 12906" d="M6.467,2h-5.1C.683,2,0,1.893,0,1S.631,0,1.367,0H11.724c.736,0,1.367.105,1.367.946,0,.894-.684,1-1.472,1C9.831,2,8.149,2,6.467,2Z" transform="translate(22.606 32.438)" fill="#ff8300"/>
        <path id="Path_12907" data-name="Path 12907" d="M6.467,1.945h-5.2C.578,1.945,0,1.787,0,1,0,.158.578,0,1.314,0h10.41c.683,0,1.262.21,1.314.946,0,.841-.578,1-1.314,1Z" transform="translate(22.606 18.453)" fill="#ff8300"/>
        <path id="Path_12908" data-name="Path 12908" d="M5.573,2H1.262C.578,2,0,1.788,0,1S.578,0,1.262,0H9.936c.683,0,1.209.21,1.209.946S10.62,2,9.936,2Z" transform="translate(22.606 52.363)" fill="#ff8300"/>
        <path id="Path_12909" data-name="Path 12909" d="M4.259,2h-3.1C.473,2,0,1.735,0,1S.526,0,1.157,0H7.518C8.2,0,8.675.263,8.675,1s-.526.946-1.157.946C6.414,2,5.363,2,4.259,2Z" transform="translate(22.554 46.422)" fill="#ff8300"/>
      </g>
    </g>
    <g id="Group_561" data-name="Group 561" transform="translate(0 500)">
      <path id="Path_17411" data-name="Path 17411" d="M78.772,0a78.772,78.772,0,1,0,78.772,78.772A78.86,78.86,0,0,0,78.772,0" transform="translate(386.305 4310.215)" fill="#109194"/>
      <path id="Path_17412" data-name="Path 17412" d="M132.059,66.03a66.03,66.03,0,1,0-66.03,66.03,66.03,66.03,0,0,0,66.03-66.03" transform="translate(399.049 4322.955)" fill="#fff"/>
      <g id="Group_328" data-name="Group 328" transform="translate(435.851 4355.245)">
        <path id="Path_12910" data-name="Path 12910" d="M24.5,18.459c1.707,1.707,3.358,3.413,5.23,5.285.165-.22.275-.55.5-.826,7.267-7.267,14.479-14.534,21.8-21.8A3.912,3.912,0,0,1,53.677.126a2.294,2.294,0,0,1,2.588,1.211,2.429,2.429,0,0,1-.33,2.808,6.584,6.584,0,0,0-.606.661L31.711,28.423c-1.652,1.651-2.808,1.6-4.459-.055-1.927-1.982-3.909-3.909-5.836-5.891-.165-.165-.33-.275-.5-.441-2.092,2.092-4.184,4.184-6.276,6.221l-.661.661a2.377,2.377,0,0,1-3.413-.055c-3.3-3.248-6.551-6.552-9.8-9.8A2.473,2.473,0,1,1,4.294,15.6c2.477,2.422,4.9,4.9,7.322,7.322.22.22.44.385.716.661l.716-.716,21.8-21.8A3.913,3.913,0,0,1,36.5.071a2.264,2.264,0,0,1,2.588,1.266A2.439,2.439,0,0,1,38.7,4.2c-.5.551-1.046,1.046-1.6,1.6L25.049,17.853C24.829,18.073,24.664,18.294,24.5,18.459Z" transform="translate(7.347 34.338)" fill="#ff8300"/>
        <path id="Path_12911" data-name="Path 12911" d="M4.845,7.377H9.524a7.377,7.377,0,0,1,7.652,7.542v7.047A7.292,7.292,0,0,1,9.69,29.454H2.7A2.422,2.422,0,0,1,0,26.811V2.643A2.416,2.416,0,0,1,2.477,0,2.4,2.4,0,0,1,4.9,2.643C4.9,4.239,4.845,5.781,4.845,7.377Zm.165,4.955a.171.171,0,0,0-.055.11c0,3.909-.055,7.818-.055,11.671,0,.165.33.44.5.44q2.23.082,4.459,0a2.362,2.362,0,0,0,2.367-2.423c.055-2.477.055-4.955,0-7.487a2.242,2.242,0,0,0-1.982-2.312C8.533,12.277,6.716,12.332,5.01,12.332Z" transform="translate(22.156 0)" fill="#ff8300"/>
        <path id="Path_12912" data-name="Path 12912" d="M4.869,14.755V19.71a2.413,2.413,0,0,1-1.817,2.312,2.339,2.339,0,0,1-2.7-1.156,2.766,2.766,0,0,1-.33-1.321c0-3.688-.055-7.432,0-11.121A8.485,8.485,0,0,1,8.723,0,8.529,8.529,0,0,1,17.2,8.534c.055,3.634,0,7.322,0,10.956a2.388,2.388,0,0,1-2.422,2.588A2.446,2.446,0,0,1,12.3,19.434V14.975c0-.055-.055-.11-.11-.22Zm7.377-5.01c.165-1.872-.165-3.413-1.817-4.349a3.489,3.489,0,0,0-3.964.22A3.979,3.979,0,0,0,4.979,9.745Z" transform="translate(0 7.432)" fill="#ff8300"/>
        <path id="Path_12913" data-name="Path 12913" d="M.026,10.956A10.257,10.257,0,0,1,2.118,3.744,9.6,9.6,0,0,1,9.771,0h2.588a2.46,2.46,0,0,1,.275,4.9,18.638,18.638,0,0,1-2.477.055,4.841,4.841,0,0,0-5.175,5.12v2.147a4.9,4.9,0,0,0,4.9,5.01c.826.055,1.6,0,2.422,0a2.5,2.5,0,0,1,2.532,2.422A2.372,2.372,0,0,1,12.3,22.077,21.844,21.844,0,0,1,7.624,21.8,9.677,9.677,0,0,1,.081,12.277,10.155,10.155,0,0,1,.026,10.956Z" transform="translate(44.206 7.377)" fill="#ff8300"/>
      </g>
    </g>
    <circle id="Ellipse_104" data-name="Ellipse 104" cx="10" cy="10" r="10" transform="translate(173 4456)" fill="#bc1c2b"/>
    <path id="Path_17722" data-name="Path 17722" d="M2.637,0a1.158,1.158,0,0,0-1.1.8Q.818,2.993.064,5.171a1.158,1.158,0,0,0,2.189.758q.761-2.2,1.485-4.409A1.159,1.159,0,0,0,2.637,0" transform="translate(741.747 4689.408)" fill="#0f0032"/>
    <g id="Group_567" data-name="Group 567" transform="translate(1092.377 4025.979)">
      <path id="Path_12891" data-name="Path 12891" d="M16.656,29.514a11.82,11.82,0,0,1-6.559.547c-.894-.2-1.242-.6-1.093-1.292.1-.646.6-.894,1.491-.8a8.241,8.241,0,0,0,4.869-.447,9.376,9.376,0,0,1-1.888-.6c-.646-.348-1.192-.1-1.838-.05a8,8,0,0,1-4.174-.547c-.6-.248-.944-.7-.7-1.342a1.05,1.05,0,0,1,1.441-.646c.7.2,1.391.348,1.987.5a15.247,15.247,0,0,1-.248-2.932,2.784,2.784,0,0,1,2.932-2.236,2.4,2.4,0,0,1,2.484,2.335,16.666,16.666,0,0,1-.745,3.13c1.093.1,2.335.2,3.776.3a3.353,3.353,0,0,1-.3-3.379c.1-.149-.1-.5-.2-.646-.547-.646-1.043-1.292-1.64-1.888a12.688,12.688,0,0,1-3.428-7.3A6,6,0,0,1,17.4,5.366a2.276,2.276,0,0,0,1.739-1.391,4.811,4.811,0,0,1,2.733-2.484,16.4,16.4,0,0,1,13.664,0,5.718,5.718,0,0,1,3.131,3.23,1.224,1.224,0,0,0,.845.5c3.627.944,5.515,3.478,5.118,7.006a12.41,12.41,0,0,1-1.888,5.416,22.169,22.169,0,0,1-1.689,2.087c-.447.547-.895,1.043-1.391,1.59a1.044,1.044,0,0,0-.2,1.292,2.49,2.49,0,0,1-.248,2.484c-.2.3-.4.547-.3.8.249.894.447,1.838.7,2.733a1.158,1.158,0,0,0,.447.547A39.264,39.264,0,0,1,57.152,55.6a18.628,18.628,0,0,1-2.484,13.167.779.779,0,0,0,.249,1.242,5.263,5.263,0,0,1,.6.5c1.689,1.441,1.938,2.932.8,4.82a3.489,3.489,0,0,1-4.571,1.491,4.149,4.149,0,0,1-1.391-.745,3.642,3.642,0,0,0-3.18-.7,113.474,113.474,0,0,1-22.856,1.292c-5.068-.3-10.087-.944-15.105-1.391a2.265,2.265,0,0,0-1.292.3,8.134,8.134,0,0,1-3.428,1.491A3.531,3.531,0,0,1,.856,74.68a3.074,3.074,0,0,1,.795-3.925c1.441-1.342,1.391-1.342.547-3.031A20.3,20.3,0,0,1,.806,52.768,40.932,40.932,0,0,1,16.457,29.713.389.389,0,0,1,16.656,29.514ZM55.263,59.178a26.462,26.462,0,0,0-2.037-10.236A39.382,39.382,0,0,0,40.307,31.8a4.91,4.91,0,0,0-3.577-1.093q-8.049.3-16.1,0A5.127,5.127,0,0,0,17.2,31.75a17.648,17.648,0,0,0-1.54,1.143A40.712,40.712,0,0,0,4.98,46.955a29.737,29.737,0,0,0-2.733,9.192A17.817,17.817,0,0,0,4.483,67.625c.994,1.64.795,2.733-.646,3.975a6.482,6.482,0,0,0-.894.745,1.454,1.454,0,0,0-.4.944A1.681,1.681,0,0,0,5.079,74.73a5.019,5.019,0,0,0,1.242-.7C7.414,72.991,8.607,73.09,10,73.19c5.366.547,10.733,1.143,16.148,1.391,7.552.4,15.006-.547,22.509-1.491a3.2,3.2,0,0,1,1.64.4c.8.348,1.441.944,2.236,1.292a1.417,1.417,0,0,0,2.037-.7c.547-.944.5-1.342-.4-2.087a8.671,8.671,0,0,1-.7-.6c-1.292-1.192-1.491-2.236-.6-3.726A16.367,16.367,0,0,0,55.263,59.178ZM28.681,20.62h3.776c.248,0,.7-.2.745-.4A41.429,41.429,0,0,0,36.73,7.105a3.314,3.314,0,0,0-2.136-3.627,18.232,18.232,0,0,0-4.571-1.193,12.634,12.634,0,0,0-7.254,1.143,3.467,3.467,0,0,0-2.186,3.677,41.426,41.426,0,0,0,3.528,13.118,1.014,1.014,0,0,0,.745.4Zm0,8.049h7.453a4.816,4.816,0,0,0,.845-.05c.547-.1.7-.4.348-.894-.447-.646-.895-1.143-1.789-.994a18.311,18.311,0,0,1-2.335,0c-.7,0-1.192-.248-1.292-.994-.05-.646.5-1.093,1.292-1.093h3.379c.7,0,.895-.6.944-1.043,0-.248-.447-.6-.8-.795-.2-.149-.547-.05-.844-.05H20.929c-.547,0-1.093.2-1.143.845-.05.547.6,1.043,1.242,1.043h3.279a1.035,1.035,0,0,1,1.143.994.973.973,0,0,1-1.093,1.093,21.56,21.56,0,0,1-2.534,0,1.629,1.629,0,0,0-1.739.944c-.348.6-.248.845.4.994a3.756,3.756,0,0,0,.745.05C23.712,28.67,26.2,28.67,28.681,28.67Zm6.708-8.1a10.456,10.456,0,0,0,1.739.05.981.981,0,0,0,.6-.3c.745-.845,1.491-1.689,2.186-2.534a9.446,9.446,0,0,0,2.534-7.155,3.641,3.641,0,0,0-3.627-3.279A43.225,43.225,0,0,1,35.388,20.571ZM18.495,7.3a3.827,3.827,0,0,0-3.577,3.329A9.7,9.7,0,0,0,17.6,17.987c.7.795,1.341,1.59,2.037,2.335.149.149.348.348.5.348.6,0,1.193-.05,1.888-.1A44.073,44.073,0,0,1,18.495,7.3ZM12.383,23.949c.1,0,.2-.05.3-.05a5.682,5.682,0,0,0,.5-1.143c.05-.248-.149-.745-.348-.795-.5-.149-.944.1-.895.646A4.741,4.741,0,0,0,12.383,23.949Z" transform="translate(0 0)" fill="#ff8300"/>
      <path id="Path_12892" data-name="Path 12892" d="M16.1,32.1A16.049,16.049,0,1,1,16,0a16.049,16.049,0,1,1,.1,32.1Zm.1-30.011A13.962,13.962,0,1,0,30.061,16.148,13.964,13.964,0,0,0,16.2,2.087Z" transform="translate(13 36.669)" fill="#ff8300"/>
      <path id="Path_12893" data-name="Path 12893" d="M10.339,5.018A3.388,3.388,0,0,0,7.358,2.385c-1.888-.1-3.727-.05-5.615-.05a4.272,4.272,0,0,1-.795-.05A1.082,1.082,0,0,1,0,1.143,1.119,1.119,0,0,1,1,.05a2.419,2.419,0,0,1,.6-.05H15.209A1.261,1.261,0,0,1,16.5,1.143a1.176,1.176,0,0,1-1.292,1.193H12.377a1.864,1.864,0,0,0-.547.05c.3.8.6,1.59.944,2.335.05.149.3.248.447.3.646.05,1.292,0,1.987,0A1.219,1.219,0,0,1,16.55,6.211a1.184,1.184,0,0,1-1.342,1.143H12.774a6.658,6.658,0,0,1-1.838,3.13,5.852,5.852,0,0,1-3.876,1.54c-.944.05-1.838,0-2.932,0l.547.547c2.136,2.037,4.273,4.074,6.459,6.112a2.306,2.306,0,0,1,.348.348,1.128,1.128,0,0,1,.05,1.64,1.142,1.142,0,0,1-1.689,0c-1.292-1.242-2.584-2.435-3.876-3.677C4.178,15.3,2.439,13.614.65,11.925a1.343,1.343,0,0,1-.5-1.54c.249-.646.8-.745,1.441-.745H7.01a3.408,3.408,0,0,0,3.28-2.286c-.249,0-.447-.05-.646-.05H1.694a3.281,3.281,0,0,1-.7-.05,1.062,1.062,0,0,1-.944-.994,1.1,1.1,0,0,1,.7-1.193,2.322,2.322,0,0,1,.845-.1H9.743A2.222,2.222,0,0,0,10.339,5.018Z" transform="translate(21 42.737)" fill="#ff8300"/>
    </g>
    <g id="Group_572" data-name="Group 572" transform="translate(1 453)">
      <ellipse id="Ellipse_139" data-name="Ellipse 139" cx="16" cy="15.5" rx="16" ry="15.5" transform="translate(167 3721)" fill="#bc1c2b"/>
      <text id="_1" data-name="1" transform="translate(179 3744)" fill="#fff" font-size="20" font-family="Montserrat-SemiBold, Montserrat" font-weight="600"><tspan x="0" y="0">1</tspan></text>
    </g>
    <g id="Group_573" data-name="Group 573" transform="translate(1 730)">
      <ellipse id="Ellipse_139-2" data-name="Ellipse 139" cx="16" cy="15.5" rx="16" ry="15.5" transform="translate(167 3721)" fill="#bc1c2b"/>
      <text id="_2" data-name="2" transform="translate(177 3743)" fill="#fff" font-size="20" font-family="Montserrat-SemiBold, Montserrat" font-weight="600"><tspan x="0" y="0">2</tspan></text>
    </g>
    <g id="Group_574" data-name="Group 574" transform="translate(162 1129)">
      <ellipse id="Ellipse_139-3" data-name="Ellipse 139" cx="16" cy="15.5" rx="16" ry="15.5" transform="translate(167 3721)" fill="#bc1c2b"/>
      <text id="_3" data-name="3" transform="translate(177 3743)" fill="#fff" font-size="20" font-family="Montserrat-SemiBold, Montserrat" font-weight="600"><tspan x="0" y="0">3</tspan></text>
    </g>
    <g id="Group_575" data-name="Group 575" transform="translate(548 990)">
      <ellipse id="Ellipse_139-4" data-name="Ellipse 139" cx="16" cy="15.5" rx="16" ry="15.5" transform="translate(167 3721)" fill="#bc1c2b"/>
      <text id="_4" data-name="4" transform="translate(176 3743)" fill="#fff" font-size="20" font-family="Montserrat-SemiBold, Montserrat" font-weight="600"><tspan x="0" y="0">4</tspan></text>
    </g>
    <g id="Group_576" data-name="Group 576" transform="translate(576 682)">
      <ellipse id="Ellipse_139-5" data-name="Ellipse 139" cx="16" cy="15.5" rx="16" ry="15.5" transform="translate(167 3721)" fill="#bc1c2b"/>
      <text id="_5" data-name="5" transform="translate(177 3743)" fill="#fff" font-size="20" font-family="Montserrat-SemiBold, Montserrat" font-weight="600"><tspan x="0" y="0">5</tspan></text>
    </g>
    <g id="Group_577" data-name="Group 577" transform="translate(839 360)">
      <ellipse id="Ellipse_139-6" data-name="Ellipse 139" cx="16" cy="15.5" rx="16" ry="15.5" transform="translate(167 3721)" fill="#bc1c2b"/>
      <text id="_6" data-name="6" transform="translate(176 3743)" fill="#fff" font-size="20" font-family="Montserrat-SemiBold, Montserrat" font-weight="600"><tspan x="0" y="0">6</tspan></text>
    </g>
    <g id="Group_578" data-name="Group 578" transform="translate(1349.362 4175)">
      <circle id="Ellipse_139-7" data-name="Ellipse 139" cx="16" cy="16" r="16" transform="translate(-0.362)" fill="#bc1c2b"/>
      <text id="_7" data-name="7" transform="translate(9.638 22)" fill="#fff" font-size="20" font-family="Montserrat-SemiBold, Montserrat" font-weight="600"><tspan x="0" y="0">7</tspan></text>
    </g>
    <g id="Group_579" data-name="Group 579" transform="translate(1388.442 4472)">
      <circle id="Ellipse_139-8" data-name="Ellipse 139" cx="16" cy="16" r="16" transform="translate(-0.442)" fill="#bc1c2b"/>
      <text id="_8" data-name="8" transform="translate(8.558 22)" fill="#fff" font-size="20" font-family="Montserrat-SemiBold, Montserrat" font-weight="600"><tspan x="0" y="0">8</tspan></text>
    </g>
    <g id="Group_580" data-name="Group 580" transform="translate(1388.442 4735)">
      <circle id="Ellipse_139-9" data-name="Ellipse 139" cx="16" cy="16" r="16" transform="translate(-0.442)" fill="#bc1c2b"/>
      <text id="_9" data-name="9" transform="translate(9.558 23)" fill="#fff" font-size="20" font-family="Montserrat-SemiBold, Montserrat" font-weight="600"><tspan x="0" y="0">9</tspan></text>
    </g>
  </g>
</svg>
