<svg xmlns="http://www.w3.org/2000/svg" width="214.897" height="73.678" viewBox="0 0 214.897 73.678">
  <g id="crossref-seeklogo.com" transform="translate(0 0)">
    <path id="Path_17624" data-name="Path 17624" d="M111.8,87.248V65.037L130.065,59l32.35,11.067Z" transform="translate(-111.8 -13.57)" fill="#3eb1c8"/>
    <path id="Path_17625" data-name="Path 17625" d="M144.15,36.8,111.8,47.945l18.265,6.037,32.35-11.145Z" transform="translate(-111.8 -8.552)" fill="#d8d2c4"/>
    <path id="Path_17626" data-name="Path 17626" d="M135.4,55.745,167.75,44.6V66.812Z" transform="translate(-117.135 -10.315)" fill="#4f5858"/>
    <path id="Path_17627" data-name="Path 17627" d="M162.415.3V22.512L144.15,28.548,111.8,17.481Z" transform="translate(-111.8 -0.3)" fill="#ffc72c"/>
    <path id="Path_17628" data-name="Path 17628" d="M144.15,33.567,111.8,44.712V22.5Z" transform="translate(-111.8 -5.319)" fill="#ef3340"/>
    <g id="Group_501" data-name="Group 501" transform="translate(60.035 17.181)">
      <g id="Group_500" data-name="Group 500">
        <g id="Group_499" data-name="Group 499">
          <g id="Group_498" data-name="Group 498">
            <path id="Path_17629" data-name="Path 17629" d="M20.354,101.771a6.214,6.214,0,0,0-6.269-5.031c-5.65,0-7.817,4.8-7.817,9.829,0,4.8,2.167,9.6,7.817,9.6,3.87,0,6.037-2.631,6.5-6.424H26.7c-.619,7.12-5.572,11.764-12.615,11.764C5.263,121.428,0,114.85,0,106.569,0,98.056,5.263,91.4,14.085,91.4c6.346,0,11.609,3.715,12.383,10.293H20.354Z" transform="translate(0 -91.4)" fill="#4f5858"/>
            <path id="Path_17630" data-name="Path 17630" d="M37.4,102.342h5.417v3.87h.077a7.369,7.369,0,0,1,6.656-4.411,3.506,3.506,0,0,1,1.238.232v5.34a8.436,8.436,0,0,0-2.012-.232c-4.179,0-5.65,3.018-5.65,6.656v9.364H37.4V102.342Z" transform="translate(-8.455 -93.751)" fill="#4f5858"/>
            <path id="Path_17631" data-name="Path 17631" d="M65.558,101.8c6.578,0,10.758,4.334,10.758,10.99,0,6.578-4.257,10.912-10.758,10.912S54.8,119.368,54.8,112.79C54.877,106.134,59.057,101.8,65.558,101.8Zm0,17.568c3.87,0,5.031-3.328,5.031-6.656s-1.161-6.656-5.031-6.656-5.031,3.328-5.031,6.656S61.765,119.368,65.558,119.368Z" transform="translate(-12.389 -93.751)" fill="#4f5858"/>
            <path id="Path_17632" data-name="Path 17632" d="M89.617,116.327c.077,2.477,2.167,3.483,4.411,3.483,1.625,0,3.715-.619,3.715-2.631,0-1.7-2.4-2.322-6.5-3.25-3.328-.7-6.578-1.857-6.578-5.572,0-5.34,4.566-6.656,9.055-6.656,4.566,0,8.745,1.548,9.132,6.656H97.434c-.155-2.244-1.857-2.786-3.87-2.786-1.316,0-3.173.232-3.173,1.935,0,2.012,3.25,2.322,6.5,3.1,3.328.774,6.578,1.935,6.578,5.8,0,5.495-4.721,7.2-9.519,7.2s-9.519-1.78-9.751-7.352h5.417Z" transform="translate(-19.036 -93.729)" fill="#4f5858"/>
            <path id="Path_17633" data-name="Path 17633" d="M116.517,116.327c.077,2.477,2.167,3.483,4.411,3.483,1.625,0,3.715-.619,3.715-2.631,0-1.7-2.4-2.322-6.5-3.25-3.328-.7-6.578-1.857-6.578-5.572,0-5.34,4.566-6.656,9.055-6.656,4.566,0,8.745,1.548,9.132,6.656h-5.417c-.155-2.244-1.857-2.786-3.87-2.786-1.316,0-3.173.232-3.173,1.935,0,2.012,3.25,2.322,6.5,3.1,3.328.774,6.578,1.935,6.578,5.8,0,5.495-4.721,7.2-9.519,7.2s-9.519-1.78-9.751-7.352h5.417Z" transform="translate(-25.117 -93.729)" fill="#4f5858"/>
            <path id="Path_17634" data-name="Path 17634" d="M138.4,102.342h5.417v3.87h.077a7.369,7.369,0,0,1,6.656-4.411,3.506,3.506,0,0,1,1.238.232v5.34a8.436,8.436,0,0,0-2.012-.232c-4.179,0-5.65,3.018-5.65,6.656v9.364H138.4V102.342Z" transform="translate(-31.289 -93.751)" fill="#4f5858"/>
            <path id="Path_17635" data-name="Path 17635" d="M162.027,114.083c.155,3.637,1.935,5.263,5.108,5.263,2.322,0,4.1-1.393,4.489-2.709h5.031c-1.625,4.876-5.031,6.965-9.751,6.965-6.578,0-10.6-4.489-10.6-10.912,0-6.191,4.334-10.99,10.6-10.99,7.043,0,10.525,5.959,10.061,12.305H162.027Zm9.287-3.56c-.542-2.864-1.78-4.411-4.566-4.411a4.445,4.445,0,0,0-4.721,4.411Z" transform="translate(-35.336 -93.729)" fill="#4f5858"/>
            <path id="Path_17636" data-name="Path 17636" d="M186.205,104.064H182.8v-3.792h3.405V98.646c0-3.637,2.322-6.346,6.965-6.346,1.006,0,2.012.155,3.018.155v4.257a18.975,18.975,0,0,0-2.09-.155c-1.548,0-2.167.619-2.167,2.4v1.238h3.947v3.792h-3.947v16.949h-5.727Z" transform="translate(-41.327 -91.603)" fill="#4f5858"/>
          </g>
        </g>
      </g>
    </g>
  </g>
</svg>
