<svg xmlns="http://www.w3.org/2000/svg" xmlns:xlink="http://www.w3.org/1999/xlink" width="209.726" height="71.765" viewBox="0 0 209.726 71.765">
  <defs>
    <clipPath id="clip-path">
      <rect id="Rectangle_196" data-name="Rectangle 196" width="209.726" height="71.765" fill="none"/>
    </clipPath>
  </defs>
  <g id="Group_505" data-name="Group 505" transform="translate(0 0)">
    <g id="Group_504" data-name="Group 504" transform="translate(0 0)">
      <g id="Group_503" data-name="Group 503" transform="translate(0 0)" clip-path="url(#clip-path)">
        <path id="Path_17652" data-name="Path 17652" d="M249.581,55.244c-.35,0-.7,0-1.053,0-1.753-.016-3.777.5-5.184-.2-1.341-.671-1.6-2.837-2.327-4.351a1.291,1.291,0,0,0-1.387-.827c-3.311.031-6.623.043-9.933-.007a1.423,1.423,0,0,0-1.474.96c-.726,1.473-1.162,3.516-2.366,4.212-1.283.742-3.313.2-5.018.215-.394,0-.787,0-1.189,0a2.443,2.443,0,0,1,.518-1.43Q226.852,40.7,233.553,27.6c.344-.675.561-1.274,1.58-1.259,1,.015,1.118.683,1.4,1.271q6.083,12.817,12.155,25.639c.232.487.277,1.135.9,1.387ZM237.866,44.08l-2.945-6.308-3.21,6.308Z" transform="translate(-39.855 -4.781)" fill="#0a0a09"/>
        <path id="Path_17653" data-name="Path 17653" d="M54.474,81.836h-.008c-.27.1-11.746,4.035-22.06,1.539a.613.613,0,0,1-.131-.033c-.638-.18-1.277-.36-1.915-.557-.548-.164-1.1-.344-1.637-.532a2.39,2.39,0,0,1-.532-.229l-.016-.008-.139-.131v-.008c-.008-.008-.008-.016-.016-.025-.09-.172.008-.393.368-.753q6.164-6.078,12.254-12.2c.458-.467.745-.475,1.211-.008q6.09,6.127,12.245,12.2c.352.352.458.573.377.745" transform="translate(-5.078 -12.437)" fill="#35a438"/>
        <path id="Path_17654" data-name="Path 17654" d="M140.836,40.743a14.988,14.988,0,1,1,15.088,14.921,15.037,15.037,0,0,1-15.088-14.921m6.043-.052a8.963,8.963,0,1,0,8.9-9,9.04,9.04,0,0,0-8.9,9" transform="translate(-25.555 -4.665)" fill="#0b0b0b"/>
        <path id="Path_17655" data-name="Path 17655" d="M185.478,40.666c0-4.4.029-8.805-.024-13.207-.011-.938.25-1.162,1.169-1.151,4.265.051,8.533-.017,12.8.036a8.714,8.714,0,0,1,8.533,6.279,8.526,8.526,0,0,1-3.938,9.8c-.7.443-.691.749-.39,1.387,1.637,3.467,3.215,6.963,4.869,10.423.375.785.345,1.105-.6,1a1.321,1.321,0,0,0-.151,0c-1.654-.02-3.638.511-4.865-.22-1.147-.683-1.5-2.7-2.185-4.139-.959-2.027-1.942-4.044-2.823-6.1a1.484,1.484,0,0,0-1.683-1.059,32.047,32.047,0,0,1-3.762,0c-.91-.052-1.209.21-1.19,1.158.063,3.051-.022,6.1.049,9.154.024,1.021-.313,1.3-1.267,1.2-1.48-.145-3.467.627-4.311-.311-.733-.814-.223-2.755-.228-4.2-.012-3.352,0-6.7,0-10.056m10.5-2.823h3.314c.05,0,.1,0,.151,0a2.857,2.857,0,1,0,.1-5.713c-2.458-.064-4.92-.007-7.381-.027-.581,0-.943.067-.909.795.074,1.59-.454,3.523.282,4.667.594.923,2.707.173,4.141.278.1.007.2,0,.3,0" transform="translate(-33.626 -4.774)" fill="#090909"/>
        <path id="Path_17656" data-name="Path 17656" d="M106.024,40.674c0-4.35.024-8.7-.02-13.048-.009-.92.148-1.321,1.2-1.261,3.346.191,6.726-.332,10.049.344a14.42,14.42,0,0,1,11.341,15.866c-.665,6.871-7.038,12.593-14.126,12.66-2.407.024-4.816-.051-7.222.017-.978.027-1.258-.24-1.246-1.229.056-4.45.025-8.9.025-13.349m5.805.089v6.3c0,2.582,0,2.582,2.638,2.37,5.49-.44,9.168-5,8.2-10.166-.834-4.46-4.346-7.1-9.352-7.153-1.13-.011-1.577.206-1.52,1.449.109,2.4.032,4.8.032,7.2" transform="translate(-19.234 -4.782)" fill="#090909"/>
        <path id="Path_17657" data-name="Path 17657" d="M41.286,0A36.973,36.973,0,0,1,53.5,2.153c.915.317,1.411.537.424,1.5q-5.968,5.814-11.8,11.764c-.729.742-1.1.623-1.757-.043-3.87-3.913-7.753-7.816-11.7-11.65-1.006-.977-.646-1.234.406-1.593A37.348,37.348,0,0,1,41.286,0" transform="translate(-5.093 0)" fill="#bd1140"/>
        <path id="Path_17658" data-name="Path 17658" d="M0,41.1A36.588,36.588,0,0,1,2.218,28.768c.3-.841.542-1.188,1.363-.355q5.967,6.047,12.033,12c.58.571.529.889-.02,1.43q-6.049,5.967-12.032,12c-.876.887-1.075.367-1.35-.4A36.379,36.379,0,0,1,0,41.1" transform="translate(0 -5.069)" fill="#ffa700"/>
        <path id="Path_17659" data-name="Path 17659" d="M84.812,41.08a36.964,36.964,0,0,1-2.179,12.33c-.344,1.006-.681,1.164-1.489.348q-5.921-5.981-11.923-11.88c-.64-.629-.534-.975.045-1.545q5.94-5.855,11.812-11.778c.837-.847,1.2-.756,1.576.342A36.809,36.809,0,0,1,84.812,41.08" transform="translate(-12.481 -5.079)" fill="#0f8acd"/>
        <path id="Path_17660" data-name="Path 17660" d="M3.889,22.149a36.016,36.016,0,0,1,18.155-18.2c.513.219.357.566.358.828.011,5.456,0,10.912.012,16.368,0,.665.114,1.235-.939,1.225-5.724-.053-11.449-.032-17.173-.042-.083,0-.167-.07-.413-.179" transform="translate(-0.706 -0.717)" fill="#f05916"/>
        <path id="Path_17661" data-name="Path 17661" d="M3.866,61.65c6.067,0,11.929.007,17.791-.01.61,0,.756.248.756.8q-.02,8.4,0,16.808c0,1.243-.635.656-1.121.424A35.664,35.664,0,0,1,6.568,66.77a26,26,0,0,1-2.7-5.12" transform="translate(-0.701 -11.185)" fill="#8abb2c"/>
        <path id="Path_17662" data-name="Path 17662" d="M71.041,22.374c-2.659,0-5.318-.027-7.976.016-.853.013-1.248-.135-1.239-1.13q.071-8.1,0-16.2c-.008-1.146.372-1.114,1.216-.7a36.192,36.192,0,0,1,16.9,16.864c.485.982.209,1.179-.777,1.163-2.708-.041-5.417-.014-8.127-.014" transform="translate(-11.218 -0.744)" fill="#d35083"/>
        <path id="Path_17663" data-name="Path 17663" d="M61.849,70.649c0-2.6.028-5.2-.016-7.793-.015-.861.169-1.238,1.146-1.23q8.12.065,16.239,0c1.158-.008,1.1.408.694,1.229A36.219,36.219,0,0,1,63.007,79.682c-1,.49-1.184.174-1.171-.791.038-2.747.013-5.495.013-8.243" transform="translate(-11.22 -11.182)" fill="#46aabc"/>
        <path id="Path_17664" data-name="Path 17664" d="M42.616,35.235a7.206,7.206,0,1,1-7.264,7.134,7.336,7.336,0,0,1,7.264-7.134" transform="translate(-6.415 -6.394)" fill="#89898a"/>
        <path id="Path_17665" data-name="Path 17665" d="M240.541,46.614h-6.155l3.21-6.308,2.945,6.308" transform="translate(-42.53 -7.314)" fill="#edecec"/>
        <path id="Path_17666" data-name="Path 17666" d="M148.219,42.019A8.963,8.963,0,1,1,157.176,51a8.977,8.977,0,0,1-8.957-8.979" transform="translate(-26.895 -5.993)" fill="#fbfbfb"/>
        <path id="Path_17667" data-name="Path 17667" d="M197.263,39.126c-.1,0-.2.007-.3,0-1.434-.106-3.547.645-4.141-.279-.736-1.143-.207-3.077-.282-4.667-.034-.728.327-.8.909-.794,2.461.02,4.923-.037,7.381.027a2.857,2.857,0,1,1-.1,5.712c-.05,0-.1,0-.151,0h-3.314" transform="translate(-34.916 -6.058)" fill="#fbfbfb"/>
        <path id="Path_17668" data-name="Path 17668" d="M113.114,42.041c0-2.4.077-4.8-.032-7.2-.056-1.243.39-1.459,1.52-1.449,5.006.05,8.518,2.693,9.352,7.153.966,5.167-2.712,9.726-8.2,10.166-2.638.212-2.638.212-2.638-2.37Z" transform="translate(-20.518 -6.059)" fill="#f5f5f4"/>
        <path id="Path_17669" data-name="Path 17669" d="M30.36,85.733c-.548-.164-1.1-.344-1.637-.532a2.39,2.39,0,0,1-.532-.229l-.016-.008-.139-.131v-.008l-.049-.041c.008.008.025.008.033.016a20.5,20.5,0,0,0,2.341.933" transform="translate(-5.078 -15.384)" fill="#35a438"/>
      </g>
    </g>
  </g>
</svg>
