<svg xmlns="http://www.w3.org/2000/svg" xmlns:xlink="http://www.w3.org/1999/xlink" width="256" height="58" viewBox="0 0 256 58">
  <defs>
    <filter id="Rectangle_190" x="12" y="4" width="244" height="50" filterUnits="userSpaceOnUse">
      <feOffset dy="3" input="SourceAlpha"/>
      <feGaussianBlur stdDeviation="3" result="blur"/>
      <feFlood flood-opacity="0.161"/>
      <feComposite operator="in" in2="blur"/>
      <feComposite in="SourceGraphic"/>
    </filter>
    <filter id="Ellipse_9" x="0" y="0" width="58" height="58" filterUnits="userSpaceOnUse">
      <feOffset dy="3" input="SourceAlpha"/>
      <feGaussianBlur stdDeviation="3" result="blur-2"/>
      <feFlood flood-opacity="0.161"/>
      <feComposite operator="in" in2="blur-2"/>
      <feComposite in="SourceGraphic"/>
    </filter>
  </defs>
  <g id="Group_719" data-name="Group 719" transform="translate(-95 -24065)">
    <g transform="matrix(1, 0, 0, 1, 95, 24065)" filter="url(#Rectangle_190)">
      <rect id="Rectangle_190-2" data-name="Rectangle 190" width="226" height="32" rx="16" transform="translate(21 10)" fill="#fff"/>
    </g>
    <text id="Register_with_us" data-name="Register with us" transform="translate(151 24098)" fill="#336d91" font-size="20" font-family="Montserrat-Bold, Montserrat" font-weight="700"><tspan x="0" y="0">Register with us</tspan></text>
    <g transform="matrix(1, 0, 0, 1, 95, 24065)" filter="url(#Ellipse_9)">
      <circle id="Ellipse_9-2" data-name="Ellipse 9" cx="20" cy="20" r="20" transform="translate(9 6)" fill="#bc1c2b"/>
    </g>
    <path id="how_to_reg_FILL0_wght400_GRAD0_opsz48" d="M80-761.066v-3.164a4.031,4.031,0,0,1,.572-2.1,3.636,3.636,0,0,1,1.716-1.464,25.159,25.159,0,0,1,4.443-1.548,17.72,17.72,0,0,1,4.039-.471,19.367,19.367,0,0,1,2.07.118,15.032,15.032,0,0,1,2.238.421l-1.649,1.649q-.673-.067-1.329-.118t-1.329-.05a16.477,16.477,0,0,0-3.551.353A23.358,23.358,0,0,0,83.1-765.98a1.685,1.685,0,0,0-.825.774,2.179,2.179,0,0,0-.252.976v1.144H92.756l2.019,2.019Zm18.343.539L93.6-765.273l1.414-1.414,3.332,3.332,7.169-7.169,1.414,1.414ZM90.77-771.9a4.92,4.92,0,0,1-3.635-1.414,4.92,4.92,0,0,1-1.414-3.635,4.92,4.92,0,0,1,1.414-3.635A4.92,4.92,0,0,1,90.77-782a4.92,4.92,0,0,1,3.635,1.414,4.92,4.92,0,0,1,1.414,3.635,4.92,4.92,0,0,1-1.414,3.635A4.92,4.92,0,0,1,90.77-771.9ZM92.756-763.085ZM90.77-773.923a2.942,2.942,0,0,0,2.171-.858,2.942,2.942,0,0,0,.858-2.171,2.942,2.942,0,0,0-.858-2.171,2.942,2.942,0,0,0-2.171-.858,2.942,2.942,0,0,0-2.171.858,2.942,2.942,0,0,0-.858,2.171,2.942,2.942,0,0,0,.858,2.171A2.942,2.942,0,0,0,90.77-773.923ZM90.77-776.952Z" transform="translate(32 24860.693)" fill="#fff"/>
  </g>
</svg>
