<svg xmlns="http://www.w3.org/2000/svg" width="40" height="40" viewBox="0 0 40 40">
  <g id="Group_493" data-name="Group 493" transform="translate(-163 -6905)">
    <circle id="Ellipse_9" data-name="Ellipse 9" cx="20" cy="20" r="20" transform="translate(163 6905)" fill="#bc1c2b"/>
    <path id="forum_FILL0_wght400_GRAD0_opsz48" d="M85.314-863.079a1.025,1.025,0,0,1-.727-.37,1.082,1.082,0,0,1-.357-.74v-2.591H97.45v-8.989h2.644a.984.984,0,0,1,.714.37,1.124,1.124,0,0,1,.344.767v15.758l-4.2-4.2ZM80-864.136V-878.89a1.1,1.1,0,0,1,.344-.74.984.984,0,0,1,.714-.37H94.78a1.02,1.02,0,0,1,.74.357,1.079,1.079,0,0,1,.344.754v9.412a1.1,1.1,0,0,1-.344.74,1.006,1.006,0,0,1-.74.37H84.23Zm14.277-5.817v-8.461H81.586v10.576l1.957-2.115Zm-12.691,0v0Z" transform="translate(92.424 7794.438)" fill="#fff"/>
  </g>
</svg>
