<svg id="Group_571" data-name="Group 571" xmlns="http://www.w3.org/2000/svg" width="29.477" height="20.826" viewBox="0 0 29.477 20.826">
  <path id="nest_remote_comfort_sensor_FILL0_wght400_GRAD0_opsz48" d="M1.14,5.181,0,4.119A14.841,14.841,0,0,1,10.413,0,14.841,14.841,0,0,1,20.826,4.119l-1.14,1.062A13.638,13.638,0,0,0,15.49,2.5a13.383,13.383,0,0,0-5.077-.945A13.383,13.383,0,0,0,5.336,2.5,13.638,13.638,0,0,0,1.14,5.181ZM15.9,9.014a8.918,8.918,0,0,0-2.513-1.476,8.146,8.146,0,0,0-2.979-.544,8.044,8.044,0,0,0-2.966.544A9.367,9.367,0,0,0,4.921,9.014L3.782,7.926A10.029,10.029,0,0,1,10.413,5.44,9.8,9.8,0,0,1,14,6.1a10.005,10.005,0,0,1,3.018,1.826Z" transform="translate(29.477 0) rotate(90)" fill="#fff"/>
  <path id="nest_remote_comfort_sensor_FILL0_wght400_GRAD0_opsz48-2" data-name="nest_remote_comfort_sensor_FILL0_wght400_GRAD0_opsz48" d="M1.14,5.181,0,4.119A14.841,14.841,0,0,1,10.413,0,14.841,14.841,0,0,1,20.826,4.119l-1.14,1.062A13.638,13.638,0,0,0,15.49,2.5a13.383,13.383,0,0,0-5.077-.945A13.383,13.383,0,0,0,5.336,2.5,13.638,13.638,0,0,0,1.14,5.181ZM15.9,9.014a8.918,8.918,0,0,0-2.513-1.476,8.146,8.146,0,0,0-2.979-.544,8.044,8.044,0,0,0-2.966.544A9.367,9.367,0,0,0,4.921,9.014L3.782,7.926A10.029,10.029,0,0,1,10.413,5.44,9.8,9.8,0,0,1,14,6.1a10.005,10.005,0,0,1,3.018,1.826Z" transform="translate(0 20.826) rotate(-90)" fill="#fff"/>
  <path id="favorite_FILL1_wght400_GRAD0_opsz48" d="M83.882-847.07a.624.624,0,0,1-.214-.039.5.5,0,0,1-.184-.117l-.514-.475a28.193,28.193,0,0,1-2.087-2.13A3.2,3.2,0,0,1,80-851.952a1.983,1.983,0,0,1,.587-1.461A1.971,1.971,0,0,1,82.038-854a2.207,2.207,0,0,1,.98.238,2.3,2.3,0,0,1,.864.781,2.814,2.814,0,0,1,.883-.781,2.05,2.05,0,0,1,.961-.238,1.971,1.971,0,0,1,1.451.587,1.983,1.983,0,0,1,.587,1.461,3.2,3.2,0,0,1-.883,2.121,28.19,28.19,0,0,1-2.087,2.13l-.514.475a.5.5,0,0,1-.184.117A.624.624,0,0,1,83.882-847.07Z" transform="translate(-69.301 861.342)" fill="#fff"/>
</svg>
