<svg xmlns="http://www.w3.org/2000/svg" width="40" height="40" viewBox="0 0 40 40">
  <g id="Group_490" data-name="Group 490" transform="translate(-163 -6905)">
    <circle id="Ellipse_9" data-name="Ellipse 9" cx="20" cy="20" r="20" transform="translate(163 6905)" fill="#bc1c2b"/>
    <path id="mail_FILL0_wght400_GRAD0_opsz48_1_" data-name="mail_FILL0_wght400_GRAD0_opsz48 (1)" d="M81.688-782a1.619,1.619,0,0,1-1.181-.506A1.619,1.619,0,0,1,80-783.687v-14.625a1.619,1.619,0,0,1,.506-1.181A1.619,1.619,0,0,1,81.688-800h19.125a1.619,1.619,0,0,1,1.181.506,1.619,1.619,0,0,1,.506,1.181v14.625a1.619,1.619,0,0,1-.506,1.181,1.619,1.619,0,0,1-1.181.506Zm9.563-8.494-9.562-6.272v13.078h19.125v-13.078Zm0-1.687,9.45-6.131H81.828Zm-9.562-4.584v0Z" transform="translate(91.5 7716)" fill="#fff"/>
  </g>
</svg>
