<svg xmlns="http://www.w3.org/2000/svg" width="40" height="40" viewBox="0 0 40 40">
  <g id="Group_598" data-name="Group 598" transform="translate(-1459 -11930)">
    <g id="Group_494" data-name="Group 494" transform="translate(1296 5025)">
      <circle id="Ellipse_9" data-name="Ellipse 9" cx="20" cy="20" r="20" transform="translate(163 6905)" fill="#bc1c2b"/>
    </g>
    <g id="Group_495" data-name="Group 495" transform="translate(1442.147 962)">
      <path id="rate_review_FILL0_wght400_GRAD0_opsz48" d="M111.237-1164.29h2.092l6.673-6.594a.539.539,0,0,0,.159-.4.539.539,0,0,0-.159-.4L118.545-1173a.449.449,0,0,0-.331-.132.449.449,0,0,0-.331.132l-6.646,6.752Zm4.369,0h8.341v-1.589h-6.752ZM107-1155.816v-19.6a1.524,1.524,0,0,1,.477-1.112,1.524,1.524,0,0,1,1.112-.477H126.6a1.524,1.524,0,0,1,1.112.477,1.524,1.524,0,0,1,.477,1.112v13.77a1.524,1.524,0,0,1-.477,1.112,1.525,1.525,0,0,1-1.112.477H111.237Zm3.548-5.826H126.6v-13.77H108.589v15.888Zm-1.96,0v0Z" transform="translate(-80.053 12155)" fill="#fff"/>
    </g>
  </g>
</svg>
