<svg xmlns="http://www.w3.org/2000/svg" width="40" height="40" viewBox="0 0 40 40">
  <g id="Group_661" data-name="Group 661" transform="translate(-195 -6894)">
    <g id="Group_660" data-name="Group 660">
      <g id="Group_659" data-name="Group 659">
        <g id="Group_658" data-name="Group 658">
          <g id="Group_471" data-name="Group 471" transform="translate(32 -11)">
            <path id="Path_17469" data-name="Path 17469" d="M20,0A20,20,0,1,1,0,20,20,20,0,0,1,20,0Z" transform="translate(163 6905)" fill="#5fb9f0"/>
            <g id="twitter" transform="translate(173.271 6869.996)">
              <g id="Group_472" data-name="Group 472" transform="translate(0 47.522)">
                <path id="Path_633" data-name="Path 633" d="M18.932,49.245a.378.378,0,0,0-.389-.087l-.642.222a4.364,4.364,0,0,0,.8-1.389.359.359,0,0,0-.481-.44c-.9.378-1.7.707-2.332.9a.088.088,0,0,1-.072-.009,6.592,6.592,0,0,0-2.669-.923,4.288,4.288,0,0,0-4.121,4.329v.128a11.793,11.793,0,0,1-7.2-3.711l-.313-.328-.208.4A4.307,4.307,0,0,0,2.267,53.6a2.462,2.462,0,0,1-1.316-.568A.389.389,0,0,0,.484,53a.383.383,0,0,0-.164.43,6.3,6.3,0,0,0,2.781,3.5,2.662,2.662,0,0,1-1.547-.376A.39.39,0,0,0,.974,57a3.853,3.853,0,0,0,3.516,2.741A7.98,7.98,0,0,1,.433,60.767a.443.443,0,0,0-.409.3.429.429,0,0,0,.138.477c1.155.931,3.746,1.487,6.931,1.487,5.7,0,10.339-5.073,10.339-11.308v-.11a3.178,3.178,0,0,0,1.6-1.983A.375.375,0,0,0,18.932,49.245Z" transform="translate(0 -47.522)" fill="#fff"/>
              </g>
            </g>
          </g>
        </g>
      </g>
    </g>
  </g>
</svg>
