<svg xmlns="http://www.w3.org/2000/svg" width="209.163" height="75.471" viewBox="0 0 209.163 75.471">
  <g id="Group_502" data-name="Group 502" transform="translate(0)">
    <path id="Path_17637" data-name="Path 17637" d="M328.6-311.9v2.756h8.081V-311.9a12.112,12.112,0,0,1,12.1-12.1,12.112,12.112,0,0,1,12.1,12.1v19.935h8.081V-311.9a20.2,20.2,0,0,0-20.179-20.179A20.2,20.2,0,0,0,328.6-311.9m26.878,31.569a6.667,6.667,0,0,1-6.667,6.666,6.666,6.666,0,0,1-6.667-6.666A6.667,6.667,0,0,1,348.815-287a6.667,6.667,0,0,1,6.667,6.669" transform="translate(-255.032 332.081)" fill="#f68212"/>
    <path id="Path_17638" data-name="Path 17638" d="M111.417-196.422a15.732,15.732,0,0,1,15.714-15.714,15.731,15.731,0,0,1,15.713,15.714,15.732,15.732,0,0,1-15.713,15.714,15.733,15.733,0,0,1-15.714-15.714m-8.081,0a23.823,23.823,0,0,0,23.8,23.794,23.822,23.822,0,0,0,23.794-23.794,23.822,23.822,0,0,0-23.794-23.8,23.823,23.823,0,0,0-23.8,23.8m-62.121-2.2c2.476,0,3.894-2.332,3.894-5.5,0-2.91-1.37-5.411-3.894-5.411s-3.943,2.452-3.943,5.482c0,3.054,1.467,5.433,3.92,5.433Zm-.168,2.91c-4.784,0-7.621-3.631-7.621-8.247,0-4.858,3.125-8.487,7.885-8.487,4.976,0,7.693,3.725,7.693,8.2,0,5.339-3.2,8.536-7.934,8.536h-.023Zm14.845-8.9a5.48,5.48,0,0,0,1.224.1c1.948,0,3.15-.986,3.15-2.62,0-1.49-1.01-2.38-2.86-2.38a6.672,6.672,0,0,0-1.514.119Zm-3.631-7.355a29.977,29.977,0,0,1,4.953-.336,7.687,7.687,0,0,1,4.976,1.322,4.633,4.633,0,0,1,1.707,3.727,5.089,5.089,0,0,1-1.467,3.846,7.694,7.694,0,0,1-5.289,1.707,6.164,6.164,0,0,1-1.249-.1v5.82H52.262Zm24.461,9.135H70.76v3.846h6.66v3.007H67.107v-16.2h9.977v3.006H70.761v3.366h5.963v2.981Zm5,6.852v-16.2H86l3.365,5.938a50.927,50.927,0,0,1,2.645,5.554h.049a66.883,66.883,0,0,1-.289-6.78v-4.712h3.366v16.2H91.293l-3.462-6.251a57.392,57.392,0,0,1-2.813-5.722h-.1c.12,2.163.168,4.447.168,7.092v4.881H81.724Zm83.693-6.9-1.009-3.439c-.264-.961-.554-2.187-.794-3.126h-.071c-.217.961-.482,2.187-.722,3.126l-.985,3.439Zm-4.111,2.739-1.129,4.161h-3.8l4.952-16.2h4.786l5.047,16.2h-3.942l-1.251-4.161Zm23.676,3.727a10.745,10.745,0,0,1-4.135.7c-5.6,0-8.487-3.512-8.487-8.15,0-5.532,3.944-8.585,8.847-8.585a9.545,9.545,0,0,1,3.991.723l-.768,2.885a7.731,7.731,0,0,0-3.078-.6c-2.885,0-5.146,1.756-5.146,5.386,0,3.245,1.924,5.29,5.17,5.29a8.747,8.747,0,0,0,3.077-.53l.529,2.885Zm14.418,0a10.751,10.751,0,0,1-4.137.7c-5.6,0-8.486-3.512-8.486-8.15,0-5.532,3.944-8.585,8.848-8.585a9.545,9.545,0,0,1,3.991.723l-.769,2.885a7.73,7.73,0,0,0-3.078-.6c-2.885,0-5.144,1.756-5.144,5.386,0,3.245,1.924,5.29,5.169,5.29a8.733,8.733,0,0,0,3.078-.53l.53,2.885Zm13.87-6.419h-5.962v3.846h6.66v3.007H203.655v-16.2h9.978v3.006h-6.324v3.366h5.962Zm5.122,3.1a9.25,9.25,0,0,0,4.063,1.011c1.682,0,2.573-.7,2.573-1.778,0-.985-.769-1.587-2.717-2.26-2.692-.961-4.472-2.452-4.472-4.832,0-2.765,2.333-4.857,6.131-4.857a9.5,9.5,0,0,1,4.135.817l-.818,2.934a7.581,7.581,0,0,0-3.364-.77c-1.589,0-2.357.745-2.357,1.563,0,1.034.889,1.49,3.005,2.307,2.861,1.06,4.184,2.548,4.184,4.857,0,2.718-2.067,5.027-6.516,5.027a10.559,10.559,0,0,1-4.592-1.011Zm13.835,0a9.251,9.251,0,0,0,4.062,1.011c1.684,0,2.573-.7,2.573-1.778,0-.985-.77-1.587-2.718-2.26-2.691-.961-4.47-2.452-4.47-4.832,0-2.765,2.33-4.857,6.129-4.857a9.5,9.5,0,0,1,4.136.817l-.817,2.934a7.58,7.58,0,0,0-3.366-.77c-1.587,0-2.356.745-2.356,1.563,0,1.034.889,1.49,3,2.307,2.86,1.06,4.183,2.548,4.183,4.857,0,2.718-2.068,5.027-6.516,5.027a10.554,10.554,0,0,1-4.59-1.011l.745-3.007Z" transform="translate(-33.426 248.099)" fill="#f68212"/>
  </g>
</svg>
