<?xml version="1.0" encoding="utf-8"?>
<!-- Generator: Adobe Illustrator 24.1.2, SVG Export Plug-In . SVG Version: 6.00 Build 0)  -->
<svg version="1.1" id="Layer_1" xmlns="http://www.w3.org/2000/svg" xmlns:xlink="http://www.w3.org/1999/xlink" x="0px" y="0px"
	 viewBox="0 0 340.5 94.4" style="enable-background:new 0 0 340.5 94.4;" xml:space="preserve">
<style type="text/css">
	.st0{fill-rule:evenodd;clip-rule:evenodd;fill:#F89522;}
	.st1{fill-rule:evenodd;clip-rule:evenodd;fill:#A4CD39;}
	.st2{fill:#3DC5F2;}
	.st3{fill:#A4CD39;}
	.st4{fill:#F89522;}
</style>
<g id="startup-india-hub-logo-vector" transform="translate(0 0)">
	<path id="Path_17639" class="st0" d="M55.3,34.2c-3.1-2.7-6.3-3.5-10.4-3.5c-4.9,0-11.4,2.2-11.4,8.4c0,6.1,6.1,7.9,11.1,8.3
		c3.8,0.2,5.3,1,5.3,2.8c0,2-2.3,3.3-4.9,3.2c-3-0.1-7.4-1.6-9.3-3.7l-3.3,4.8c3.9,4.1,8.2,4.8,12.4,4.8c7.7,0,11.6-4.1,11.6-8.9
		c0-7.2-6.4-8.3-11.5-8.6c-3.5-0.2-5-1.2-5-3c0-1.7,1.8-2.7,4.9-2.7c2.4-0.1,4.8,0.7,6.6,2.4L55.3,34.2z"/>
	<path id="Path_17640" class="st0" d="M64,24.6v6.9h-5v5.7h5v11.6c0,6.7,3.8,10,9.6,9.8c1.9,0,3.8-0.4,5.5-1.1l-1.9-5.7
		c-1,0.5-2.1,0.8-3.2,0.8c-2.1,0-3.5-1.2-3.5-3.8V37.2H78v-5.7h-7.4v-7.7L64,24.6z"/>
	<path id="Path_17641" class="st0" d="M95.2,36.8c10.4,0,10.4,16.3,0,16.3c-4.4,0-7.9-3.1-7.9-8.2C87.2,39.7,90.7,36.8,95.2,36.8
		 M103.1,35.2c-1.5-2.7-4.9-4.4-8.6-4.4c-7.8-0.1-14,4.8-14,14.1c0,9.4,5.9,14.4,13.8,14.3c3-0.1,7.2-1.6,8.7-4.8l0.3,3.9h6.3V31.4
		h-6.4L103.1,35.2z"/>
	<path id="Path_17642" class="st0" d="M114,31.4v26.9h6.6V44.1c0-4.9,3.2-6.8,6.7-6.8c1.8-0.1,3.5,0.6,4.8,1.8l3-5.8
		c-1.9-1.7-4.4-2.6-6.9-2.6c-2.7,0-5.5,0.5-7.6,3.8l-0.5-3.1L114,31.4z"/>
	<path id="Path_17643" class="st0" d="M143.3,24.6v6.9h-5v5.7h5v11.6c0,6.7,3.8,10,9.6,9.8c1.9,0,3.8-0.4,5.5-1.1l-1.9-5.7
		c-1,0.5-2.1,0.8-3.2,0.8c-2.1,0-3.5-1.2-3.5-3.8V37.2h7.5v-5.7h-7.4v-7.7L143.3,24.6z"/>
	<path id="Path_17644" class="st0" d="M162.3,31.4v14.1c0,8.3,4.7,13.2,11.1,13.2c3.7,0,6.3-1.3,9.1-4l0.5,3.6h6V31.4h-6.6v13.7
		c0,4.1-2.8,7.5-6.9,7.5c-4.3,0-6.5-3.1-6.5-7.2V31.4H162.3z"/>
	<path id="Path_17645" class="st0" d="M199.5,69.6V55.1c1.9,3,6.1,3.8,9,3.8c8.6,0,13.6-6.2,13.6-14.1c0-7.9-5.5-14.1-13.8-14.1
		c-3.4,0-6.7,1.6-8.7,4.3l-0.5-3.7h-6.2v38.1L199.5,69.6z M207.7,52.5c-4.1,0.1-7.5-3.1-7.7-7.2c0-0.1,0-0.3,0-0.4
		c0-4.2,3.5-7.6,7.7-7.6c4.2,0,7.5,3.4,7.6,7.6c0.1,4.2-3.2,7.6-7.4,7.7C207.9,52.5,207.8,52.5,207.7,52.5"/>
	<path id="Path_17646" class="st0" d="M225,23.9c0,5.2,7.8,5.2,7.8,0C232.9,18.7,225,18.7,225,23.9 M232.3,58.3h-6.6v-27h6.6V58.3z"
		/>
	<path id="Path_17647" class="st0" d="M263,58.3V44.2c0-8.5-5.1-13.2-11.4-13.2c-3.4,0-6.1,1.4-8.9,4l-0.5-3.6h-6v27h6.6V44.6
		c0-4.1,2.8-7.5,6.9-7.5c4.3,0,6.5,3.1,6.5,7.2v14.1L263,58.3z"/>
	<path id="Path_17648" class="st0" d="M288.9,20.2v14.9c-1.6-2.8-6-4.3-8.9-4.3c-7.8,0-13.7,4.8-13.7,14.1c0,8.9,6,14.1,13.8,14.1
		c3.3,0,6.6-1.1,8.7-4.3l0.5,3.7h6.2V20.1L288.9,20.2L288.9,20.2z M280.7,37c4.3,0,7.8,3.6,7.8,7.9c0,4.3-3.5,7.7-7.8,7.8
		c-4.2,0-7.6-3.3-7.7-7.5c0-0.1,0-0.3,0-0.4C273.1,40,276.4,37,280.7,37"/>
	<path id="Path_17649" class="st1" d="M300.5,23.9c0,5.2,7.8,5.2,7.8,0S300.5,18.7,300.5,23.9"/>
	<rect id="Rectangle_192" x="301.1" y="31.3" class="st2" width="6.6" height="27"/>
	<path id="Path_17650" class="st0" d="M325.9,36.8c10.4,0,10.4,16.3,0,16.3c-4.4,0-7.9-3.1-7.9-8.2C318,39.7,321.6,36.8,325.9,36.8
		 M333.9,35.2c-1.5-2.7-4.9-4.4-8.6-4.4c-7.8-0.1-14,4.8-14,14.1c0,9.4,5.9,14.4,13.8,14.3c3-0.1,7.2-1.6,8.7-4.8l0.3,3.9h6.2V31.4
		h-6.4L333.9,35.2z"/>
	<rect id="Rectangle_193" x="276" y="62.5" class="st3" width="31.8" height="6.5"/>
	<rect id="Rectangle_194" x="275.9" y="62.5" class="st3" width="6.5" height="31.8"/>
	<rect id="Rectangle_195" x="250.7" y="87.8" class="st3" width="31.7" height="6.5"/>
	<path id="Path_17651" class="st4" d="M15.8,26.9l-1.7,6.8h4.9l1.7-6.8h6l-1.6,6.8h3.2V39h-4.5l-2.1,8.2h3.6v5.3h-4.8l-1.5,6.1h-6.1
		l1.5-6.1h-5l-1.5,6.1h-6l1.5-6.1H0v-5.3h4.8l2.1-8.3H3.1v-5.2h5L9.8,27L15.8,26.9L15.8,26.9z M12.6,38.6l-2.3,9H16l2.3-9H12.6z"/>
</g>
</svg>
